#pragma bank 255

#include <gbdk/platform.h>
#include "hUGEDriver.h"
#include <stddef.h>

static const unsigned char order_cnt = 26;

static const unsigned char P0[] = {
    DN(___,0,0x000),
    DN(___,0,0x000),
    DN(___,0,0x000),
    DN(___,0,0x000),
    DN(___,0,0x000),
    DN(___,0,0x000),
    DN(___,0,0x000),
    DN(___,0,0x000),
    DN(___,0,0x000),
    DN(___,0,0x000),
    DN(___,0,0x000),
    DN(___,0,0x000),
    DN(___,0,0x000),
    DN(___,0,0x000),
    DN(___,0,0x000),
    DN(___,0,0x000),
    DN(___,0,0x000),
    DN(___,0,0x000),
    DN(___,0,0x000),
    DN(___,0,0x000),
    DN(___,0,0x000),
    DN(___,0,0x000),
    DN(___,0,0x000),
    DN(___,0,0x000),
    DN(___,0,0x000),
    DN(___,0,0x000),
    DN(___,0,0x000),
    DN(___,0,0x000),
    DN(___,0,0x000),
    DN(___,0,0x000),
    DN(___,0,0x000),
    DN(___,0,0x000),
    DN(___,0,0x000),
    DN(___,0,0x000),
    DN(___,0,0x000),
    DN(___,0,0x000),
    DN(___,0,0x000),
    DN(___,0,0x000),
    DN(___,0,0x000),
    DN(___,0,0x000),
    DN(___,0,0x000),
    DN(___,0,0x000),
    DN(___,0,0x000),
    DN(___,0,0x000),
    DN(___,0,0x000),
    DN(___,0,0x000),
    DN(___,0,0x000),
    DN(___,0,0x000),
    DN(___,0,0x000),
    DN(___,0,0x000),
    DN(___,0,0x000),
    DN(___,0,0x000),
    DN(___,0,0x000),
    DN(___,0,0x000),
    DN(___,0,0x000),
    DN(___,0,0x000),
    DN(___,0,0x000),
    DN(___,0,0x000),
    DN(___,0,0x000),
    DN(___,0,0x000),
    DN(___,0,0x000),
    DN(___,0,0x000),
    DN(___,0,0x000),
    DN(___,0,0x000),
};
static const unsigned char P1[] = {
    DN(G_3,1,0x280),
    DN(___,0,0xE01),
    DN(___,0,0x000),
    DN(___,0,0x000),
    DN(___,0,0x000),
    DN(___,0,0x000),
    DN(___,0,0x000),
    DN(___,0,0x000),
    DN(G_3,1,0x280),
    DN(___,0,0xE01),
    DN(___,0,0x000),
    DN(___,0,0x000),
    DN(___,0,0x000),
    DN(___,0,0x000),
    DN(___,0,0x000),
    DN(___,0,0x000),
    DN(G_3,1,0x280),
    DN(___,0,0xE01),
    DN(___,0,0x000),
    DN(___,0,0x000),
    DN(___,0,0x000),
    DN(___,0,0x000),
    DN(___,0,0x000),
    DN(___,0,0x000),
    DN(G_3,1,0x280),
    DN(___,0,0xE01),
    DN(___,0,0x000),
    DN(___,0,0x000),
    DN(___,0,0x000),
    DN(___,0,0x000),
    DN(___,0,0x000),
    DN(___,0,0x000),
    DN(C_5,1,0x2FF),
    DN(___,0,0xE01),
    DN(C_5,1,0x2FF),
    DN(___,0,0xE01),
    DN(___,0,0x000),
    DN(___,0,0x000),
    DN(C_5,1,0x2FF),
    DN(___,0,0xE01),
    DN(C_5,1,0x2FF),
    DN(___,0,0xE01),
    DN(___,0,0x000),
    DN(___,0,0x000),
    DN(C_5,1,0x2FF),
    DN(___,0,0xE01),
    DN(C_5,1,0x2FF),
    DN(___,0,0xE01),
    DN(___,0,0x000),
    DN(___,0,0x000),
    DN(C_5,1,0x2FF),
    DN(___,0,0xE01),
    DN(C_5,1,0x2FF),
    DN(___,0,0xE01),
    DN(___,0,0x000),
    DN(___,0,0x000),
    DN(C_5,1,0x2FF),
    DN(___,0,0xE01),
    DN(___,0,0x000),
    DN(___,0,0x000),
    DN(C_5,1,0x2FF),
    DN(___,0,0xE01),
    DN(___,0,0x000),
    DN(___,0,0x000),
};
static const unsigned char P4[] = {
    DN(E_7,1,0x037),
    DN(___,0,0x037),
    DN(___,0,0x037),
    DN(___,0,0x037),
    DN(___,0,0xE01),
    DN(___,0,0x000),
    DN(E_7,1,0x037),
    DN(___,0,0x037),
    DN(___,0,0x037),
    DN(___,0,0x037),
    DN(___,0,0xE01),
    DN(___,0,0x000),
    DN(D_7,1,0x037),
    DN(___,0,0x037),
    DN(___,0,0x037),
    DN(___,0,0x037),
    DN(___,0,0xE01),
    DN(___,0,0x000),
    DN(D_7,1,0x037),
    DN(___,0,0x037),
    DN(___,0,0x037),
    DN(___,0,0x037),
    DN(___,0,0xE01),
    DN(___,0,0x000),
    DN(D_7,1,0x037),
    DN(___,0,0x037),
    DN(___,0,0xE01),
    DN(___,0,0x000),
    DN(D_7,1,0x037),
    DN(___,0,0x037),
    DN(___,0,0xE01),
    DN(___,0,0x000),
    DN(Cs7,1,0x037),
    DN(___,0,0x037),
    DN(___,0,0x037),
    DN(___,0,0x037),
    DN(___,0,0xE01),
    DN(___,0,0x000),
    DN(Cs7,1,0x037),
    DN(___,0,0x037),
    DN(___,0,0x037),
    DN(___,0,0x037),
    DN(___,0,0xE01),
    DN(___,0,0x000),
    DN(D_7,1,0x037),
    DN(___,0,0x037),
    DN(___,0,0x037),
    DN(___,0,0x037),
    DN(___,0,0xE01),
    DN(___,0,0x000),
    DN(D_7,1,0x037),
    DN(___,0,0x037),
    DN(___,0,0x037),
    DN(___,0,0x037),
    DN(___,0,0xE01),
    DN(___,0,0x000),
    DN(D_7,1,0x037),
    DN(___,0,0x037),
    DN(___,0,0xE01),
    DN(___,0,0x000),
    DN(D_7,1,0x037),
    DN(___,0,0x037),
    DN(___,0,0xE01),
    DN(___,0,0x037),
};
static const unsigned char P13[] = {
    DN(C_8,1,0xF04),
    DN(___,0,0xF03),
    DN(C_8,1,0xF04),
    DN(___,0,0xF03),
    DN(C_8,2,0xF04),
    DN(___,0,0xF03),
    DN(___,0,0xF04),
    DN(___,0,0xF03),
    DN(C_8,1,0xF04),
    DN(___,0,0xF03),
    DN(C_8,1,0xF04),
    DN(___,0,0xF03),
    DN(C_8,2,0xF04),
    DN(___,0,0xF03),
    DN(___,0,0xF04),
    DN(___,0,0xF03),
    DN(C_8,1,0xF04),
    DN(___,0,0xF03),
    DN(C_8,1,0xF04),
    DN(___,0,0xF03),
    DN(C_8,2,0xF04),
    DN(___,0,0xF03),
    DN(___,0,0xF04),
    DN(___,0,0xF03),
    DN(C_8,1,0xF04),
    DN(___,0,0xF03),
    DN(C_8,1,0xF04),
    DN(___,0,0xF03),
    DN(C_8,2,0xF04),
    DN(___,0,0xF03),
    DN(___,0,0xF04),
    DN(___,0,0xF03),
    DN(C_7,3,0xF04),
    DN(___,0,0xF03),
    DN(C_7,3,0xF04),
    DN(___,0,0xF03),
    DN(___,0,0xF04),
    DN(___,0,0xF03),
    DN(C_7,3,0xF04),
    DN(___,0,0xF03),
    DN(C_7,3,0xF04),
    DN(___,0,0xF03),
    DN(___,0,0xF04),
    DN(___,0,0xF03),
    DN(C_7,3,0xF04),
    DN(___,0,0xF03),
    DN(C_7,3,0xF04),
    DN(___,0,0xF03),
    DN(___,0,0xF04),
    DN(___,0,0xF03),
    DN(C_7,3,0xF04),
    DN(___,0,0xF03),
    DN(C_7,3,0xF04),
    DN(___,0,0xF03),
    DN(___,0,0xF04),
    DN(___,0,0xF03),
    DN(C_7,3,0xF04),
    DN(___,0,0xF03),
    DN(___,0,0xF04),
    DN(___,0,0xF03),
    DN(C_7,3,0xF04),
    DN(___,0,0xF03),
    DN(___,0,0xF04),
    DN(___,0,0xF03),
};
static const unsigned char P2[] = {
    DN(G_3,1,0x280),
    DN(E_3,2,0x000),
    DN(___,0,0x000),
    DN(___,0,0x000),
    DN(E_4,2,0x000),
    DN(___,0,0x000),
    DN(E_3,2,0x000),
    DN(___,0,0x000),
    DN(C_5,1,0x2FF),
    DN(E_3,2,0x000),
    DN(___,0,0xE01),
    DN(___,0,0x000),
    DN(E_3,2,0x000),
    DN(___,0,0x000),
    DN(___,0,0x000),
    DN(___,0,0x000),
    DN(G_3,1,0x280),
    DN(E_4,2,0x000),
    DN(E_3,2,0x000),
    DN(___,0,0x000),
    DN(___,0,0x000),
    DN(___,0,0x000),
    DN(___,0,0xE01),
    DN(___,0,0x000),
    DN(C_5,1,0x2FF),
    DN(F_3,2,0x000),
    DN(F_4,2,0x000),
    DN(___,0,0x000),
    DN(D_3,2,0x000),
    DN(___,0,0x000),
    DN(___,0,0x000),
    DN(___,0,0x000),
    DN(G_3,1,0x280),
    DN(E_3,2,0x000),
    DN(___,0,0x000),
    DN(___,0,0x000),
    DN(E_4,2,0x000),
    DN(___,0,0x000),
    DN(E_3,2,0x000),
    DN(___,0,0x000),
    DN(C_5,1,0x2FF),
    DN(E_3,2,0x000),
    DN(___,0,0xE01),
    DN(___,0,0x000),
    DN(E_3,2,0x000),
    DN(___,0,0x000),
    DN(___,0,0x000),
    DN(___,0,0x000),
    DN(G_3,1,0x280),
    DN(E_4,2,0x000),
    DN(E_3,2,0x000),
    DN(___,0,0x000),
    DN(___,0,0x000),
    DN(___,0,0x000),
    DN(___,0,0xE01),
    DN(___,0,0x000),
    DN(C_5,1,0x2FF),
    DN(F_3,2,0x000),
    DN(F_4,2,0x000),
    DN(___,0,0x000),
    DN(D_3,2,0x000),
    DN(___,0,0x000),
    DN(C_5,1,0x2FF),
    DN(D_3,2,0x000),
};
static const unsigned char P5[] = {
    DN(E_7,2,0x037),
    DN(___,0,0x037),
    DN(___,0,0x037),
    DN(___,0,0x037),
    DN(___,0,0xE01),
    DN(___,0,0x000),
    DN(E_7,2,0x037),
    DN(___,0,0x037),
    DN(___,0,0x037),
    DN(___,0,0x037),
    DN(___,0,0xE01),
    DN(___,0,0x000),
    DN(D_7,2,0x037),
    DN(___,0,0x037),
    DN(___,0,0x037),
    DN(___,0,0x037),
    DN(___,0,0xE01),
    DN(___,0,0x000),
    DN(D_7,2,0x037),
    DN(___,0,0x037),
    DN(___,0,0x037),
    DN(___,0,0x037),
    DN(___,0,0xE01),
    DN(___,0,0x000),
    DN(D_7,2,0x037),
    DN(___,0,0x037),
    DN(___,0,0xE01),
    DN(___,0,0x000),
    DN(D_7,2,0x037),
    DN(___,0,0x037),
    DN(___,0,0xE01),
    DN(___,0,0x000),
    DN(Cs7,2,0x037),
    DN(___,0,0x037),
    DN(___,0,0x037),
    DN(___,0,0x037),
    DN(___,0,0xE01),
    DN(___,0,0x000),
    DN(Cs7,2,0x037),
    DN(___,0,0x037),
    DN(___,0,0x037),
    DN(___,0,0x037),
    DN(___,0,0xE01),
    DN(___,0,0x000),
    DN(D_7,2,0x037),
    DN(___,0,0x037),
    DN(___,0,0x037),
    DN(___,0,0x037),
    DN(___,0,0xE01),
    DN(___,0,0x000),
    DN(D_7,2,0x037),
    DN(___,0,0x037),
    DN(___,0,0x037),
    DN(___,0,0x037),
    DN(___,0,0xE01),
    DN(___,0,0x000),
    DN(D_7,2,0x037),
    DN(___,0,0x037),
    DN(___,0,0xE01),
    DN(___,0,0x000),
    DN(D_7,2,0x037),
    DN(___,0,0x037),
    DN(___,0,0xE01),
    DN(___,0,0x037),
};
static const unsigned char P14[] = {
    DN(C_8,1,0xF04),
    DN(___,0,0xF03),
    DN(C_8,1,0xF04),
    DN(___,0,0xF03),
    DN(C_8,2,0xF04),
    DN(___,0,0xF03),
    DN(___,0,0xF04),
    DN(___,0,0xF03),
    DN(C_7,3,0xF04),
    DN(___,0,0xF03),
    DN(C_8,1,0xF04),
    DN(___,0,0xF03),
    DN(C_8,2,0xF04),
    DN(___,0,0xF03),
    DN(___,0,0xF04),
    DN(___,0,0xF03),
    DN(C_8,1,0xF04),
    DN(___,0,0xF03),
    DN(C_8,1,0xF04),
    DN(___,0,0xF03),
    DN(C_8,2,0xF04),
    DN(___,0,0xF03),
    DN(___,0,0xF04),
    DN(___,0,0xF03),
    DN(C_7,3,0xF04),
    DN(___,0,0xF03),
    DN(C_8,1,0xF04),
    DN(___,0,0xF03),
    DN(C_8,2,0xF04),
    DN(___,0,0xF03),
    DN(___,0,0xF04),
    DN(___,0,0xF03),
    DN(C_8,1,0xF04),
    DN(___,0,0xF03),
    DN(C_8,1,0xF04),
    DN(___,0,0xF03),
    DN(C_8,2,0xF04),
    DN(___,0,0xF03),
    DN(___,0,0xF04),
    DN(___,0,0xF03),
    DN(C_7,3,0xF04),
    DN(___,0,0xF03),
    DN(C_8,1,0xF04),
    DN(___,0,0xF03),
    DN(C_8,2,0xF04),
    DN(___,0,0xF03),
    DN(___,0,0xF04),
    DN(___,0,0xF03),
    DN(C_8,1,0xF04),
    DN(___,0,0xF03),
    DN(C_8,1,0xF04),
    DN(___,0,0xF03),
    DN(C_8,2,0xF04),
    DN(___,0,0xF03),
    DN(___,0,0xF04),
    DN(___,0,0xF03),
    DN(C_7,3,0xF04),
    DN(___,0,0xF03),
    DN(C_8,1,0xF04),
    DN(___,0,0xF03),
    DN(C_8,2,0xF04),
    DN(___,0,0xF03),
    DN(C_7,3,0xF04),
    DN(___,0,0xF03),
};
static const unsigned char P6[] = {
    DN(E_7,2,0x037),
    DN(___,0,0x037),
    DN(___,0,0x037),
    DN(___,0,0x037),
    DN(___,0,0xE01),
    DN(___,0,0x000),
    DN(E_7,2,0x037),
    DN(___,0,0x037),
    DN(___,0,0x037),
    DN(___,0,0x037),
    DN(___,0,0xE01),
    DN(___,0,0x000),
    DN(D_7,2,0x037),
    DN(___,0,0x037),
    DN(___,0,0x037),
    DN(___,0,0x037),
    DN(___,0,0xE01),
    DN(___,0,0x000),
    DN(D_7,2,0x037),
    DN(___,0,0x037),
    DN(___,0,0x037),
    DN(___,0,0x037),
    DN(___,0,0xE01),
    DN(___,0,0x000),
    DN(D_7,2,0x037),
    DN(___,0,0x037),
    DN(___,0,0xE01),
    DN(___,0,0x000),
    DN(D_7,2,0x037),
    DN(___,0,0x037),
    DN(___,0,0xE01),
    DN(___,0,0x000),
    DN(Cs7,2,0x037),
    DN(___,0,0x037),
    DN(___,0,0x037),
    DN(___,0,0x037),
    DN(___,0,0xE01),
    DN(___,0,0x000),
    DN(Cs7,2,0x037),
    DN(___,0,0x037),
    DN(___,0,0x037),
    DN(___,0,0x037),
    DN(___,0,0xE01),
    DN(___,0,0x000),
    DN(As6,2,0x037),
    DN(___,0,0x037),
    DN(___,0,0x037),
    DN(___,0,0x037),
    DN(___,0,0xE01),
    DN(___,0,0x000),
    DN(As6,2,0x037),
    DN(___,0,0x037),
    DN(___,0,0x037),
    DN(___,0,0x037),
    DN(___,0,0xE01),
    DN(___,0,0x000),
    DN(B_6,2,0x037),
    DN(___,0,0x037),
    DN(___,0,0xE01),
    DN(___,0,0x000),
    DN(B_6,2,0x037),
    DN(___,0,0x037),
    DN(___,0,0xE01),
    DN(___,0,0x037),
};
static const unsigned char P7[] = {
    DN(E_7,2,0x037),
    DN(E_6,2,0x037),
    DN(E_7,2,0x037),
    DN(E_6,2,0x037),
    DN(___,0,0xE01),
    DN(___,0,0x000),
    DN(E_7,2,0x037),
    DN(E_6,2,0x037),
    DN(E_7,2,0x037),
    DN(E_6,2,0x037),
    DN(___,0,0xE01),
    DN(___,0,0x000),
    DN(D_7,2,0x037),
    DN(D_6,2,0x037),
    DN(D_7,2,0x037),
    DN(D_6,2,0x037),
    DN(___,0,0xE01),
    DN(___,0,0x000),
    DN(D_7,2,0x037),
    DN(D_6,2,0x037),
    DN(D_7,2,0x037),
    DN(D_6,2,0x037),
    DN(___,0,0xE01),
    DN(___,0,0x000),
    DN(D_7,2,0x037),
    DN(D_6,2,0x037),
    DN(___,0,0xE01),
    DN(___,0,0x000),
    DN(D_7,2,0x037),
    DN(D_6,2,0x037),
    DN(___,0,0xE01),
    DN(___,0,0x000),
    DN(Cs7,2,0x037),
    DN(Cs6,2,0x037),
    DN(Cs7,2,0x037),
    DN(Cs6,2,0x037),
    DN(___,0,0xE01),
    DN(___,0,0x000),
    DN(Cs7,2,0x037),
    DN(Cs6,2,0x037),
    DN(Cs7,2,0x037),
    DN(Cs6,2,0x037),
    DN(___,0,0xE01),
    DN(___,0,0x000),
    DN(D_7,2,0x037),
    DN(D_6,2,0x037),
    DN(D_7,2,0x037),
    DN(D_6,2,0x037),
    DN(___,0,0xE01),
    DN(___,0,0x000),
    DN(D_7,2,0x037),
    DN(D_6,2,0x037),
    DN(D_7,2,0x037),
    DN(D_6,2,0x037),
    DN(___,0,0xE01),
    DN(___,0,0x000),
    DN(D_7,2,0x037),
    DN(D_6,2,0x037),
    DN(___,0,0xE01),
    DN(___,0,0x000),
    DN(D_7,2,0x037),
    DN(D_6,2,0x037),
    DN(___,0,0xE01),
    DN(___,0,0x037),
};
static const unsigned char P8[] = {
    DN(E_7,2,0x037),
    DN(E_6,2,0x037),
    DN(E_7,2,0x037),
    DN(E_6,2,0x037),
    DN(___,0,0xE01),
    DN(___,0,0x000),
    DN(E_7,2,0x037),
    DN(E_6,2,0x037),
    DN(E_7,2,0x037),
    DN(E_6,2,0x037),
    DN(___,0,0xE01),
    DN(___,0,0x000),
    DN(D_7,2,0x037),
    DN(D_6,2,0x037),
    DN(D_7,2,0x037),
    DN(D_6,2,0x037),
    DN(___,0,0xE01),
    DN(___,0,0x000),
    DN(D_7,2,0x037),
    DN(D_6,2,0x037),
    DN(D_7,2,0x037),
    DN(D_6,2,0x037),
    DN(___,0,0xE01),
    DN(___,0,0x000),
    DN(D_7,2,0x037),
    DN(D_6,2,0x037),
    DN(___,0,0xE01),
    DN(___,0,0x000),
    DN(D_7,2,0x037),
    DN(D_6,2,0x037),
    DN(___,0,0xE01),
    DN(___,0,0x000),
    DN(Cs7,2,0x037),
    DN(Cs6,2,0x037),
    DN(Cs7,2,0x037),
    DN(Cs6,2,0x037),
    DN(___,0,0xE01),
    DN(___,0,0x000),
    DN(Cs7,2,0x037),
    DN(Cs6,2,0x037),
    DN(Cs7,2,0x037),
    DN(Cs6,2,0x037),
    DN(___,0,0xE01),
    DN(___,0,0x000),
    DN(As6,2,0x037),
    DN(As5,2,0x037),
    DN(As6,2,0x037),
    DN(As5,2,0x037),
    DN(___,0,0xE01),
    DN(___,0,0x000),
    DN(As6,2,0x037),
    DN(As5,2,0x037),
    DN(As6,2,0x037),
    DN(As5,2,0x037),
    DN(___,0,0xE01),
    DN(___,0,0x000),
    DN(B_6,2,0x037),
    DN(B_5,2,0x037),
    DN(___,0,0xE01),
    DN(___,0,0x000),
    DN(B_6,2,0x037),
    DN(B_5,2,0x037),
    DN(___,0,0xE01),
    DN(___,0,0x000),
};
static const unsigned char P3[] = {
    DN(G_3,1,0x280),
    DN(E_3,2,0x000),
    DN(___,0,0x000),
    DN(___,0,0x000),
    DN(E_4,2,0x000),
    DN(___,0,0x000),
    DN(E_3,2,0x000),
    DN(___,0,0x000),
    DN(C_5,1,0x2FF),
    DN(E_3,2,0x000),
    DN(___,0,0xE01),
    DN(___,0,0x000),
    DN(E_3,2,0x000),
    DN(___,0,0x000),
    DN(___,0,0x000),
    DN(___,0,0x000),
    DN(G_3,1,0x280),
    DN(E_4,2,0x000),
    DN(E_3,2,0x000),
    DN(___,0,0x000),
    DN(___,0,0x000),
    DN(___,0,0x000),
    DN(___,0,0xE01),
    DN(___,0,0x000),
    DN(C_5,1,0x2FF),
    DN(F_3,2,0x000),
    DN(F_4,2,0x000),
    DN(___,0,0x000),
    DN(D_3,2,0x000),
    DN(___,0,0x000),
    DN(___,0,0x000),
    DN(___,0,0x000),
    DN(___,0,0xE01),
    DN(___,0,0x000),
    DN(___,0,0x000),
    DN(___,0,0x000),
    DN(___,0,0x000),
    DN(___,0,0x000),
    DN(___,0,0x000),
    DN(___,0,0x000),
    DN(___,0,0x000),
    DN(___,0,0x000),
    DN(___,0,0x000),
    DN(___,0,0x000),
    DN(___,0,0x000),
    DN(___,0,0x000),
    DN(___,0,0x000),
    DN(___,0,0x000),
    DN(C_5,1,0x2FF),
    DN(B_3,2,0x000),
    DN(C_5,1,0x2FF),
    DN(B_4,2,0x000),
    DN(C_5,1,0x2FF),
    DN(A_3,2,0x000),
    DN(C_5,1,0x2FF),
    DN(A_4,2,0x000),
    DN(C_5,1,0x2FF),
    DN(G_3,2,0x000),
    DN(C_5,1,0x2FF),
    DN(G_4,2,0x000),
    DN(C_5,1,0x2FF),
    DN(F_3,2,0x000),
    DN(C_5,1,0x2FF),
    DN(F_4,2,0x000),
};
static const unsigned char P15[] = {
    DN(C_8,1,0xF04),
    DN(___,0,0xF03),
    DN(C_8,1,0xF04),
    DN(___,0,0xF03),
    DN(C_8,2,0xF04),
    DN(___,0,0xF03),
    DN(___,0,0xF04),
    DN(___,0,0xF03),
    DN(C_7,3,0xF04),
    DN(___,0,0xF03),
    DN(C_8,1,0xF04),
    DN(___,0,0xF03),
    DN(C_8,2,0xF04),
    DN(___,0,0xF03),
    DN(___,0,0xF04),
    DN(___,0,0xF03),
    DN(C_8,1,0xF04),
    DN(___,0,0xF03),
    DN(C_8,1,0xF04),
    DN(___,0,0xF03),
    DN(C_8,2,0xF04),
    DN(___,0,0xF03),
    DN(___,0,0xF04),
    DN(___,0,0xF03),
    DN(C_7,3,0xF04),
    DN(___,0,0xF03),
    DN(C_8,1,0xF04),
    DN(___,0,0xF03),
    DN(C_8,2,0xF04),
    DN(___,0,0xF03),
    DN(___,0,0xF04),
    DN(___,0,0xF03),
    DN(___,0,0xF04),
    DN(___,0,0xF03),
    DN(___,0,0xF04),
    DN(___,0,0xF03),
    DN(___,0,0xF04),
    DN(___,0,0xF03),
    DN(___,0,0xF04),
    DN(___,0,0xF03),
    DN(___,0,0xF04),
    DN(___,0,0xF03),
    DN(___,0,0xF04),
    DN(___,0,0xF03),
    DN(___,0,0xF04),
    DN(___,0,0xF03),
    DN(___,0,0xF04),
    DN(___,0,0xF03),
    DN(C_7,3,0xF04),
    DN(___,0,0xF03),
    DN(C_7,3,0xF04),
    DN(___,0,0xF03),
    DN(C_7,3,0xF04),
    DN(___,0,0xF03),
    DN(C_7,3,0xF04),
    DN(___,0,0xF03),
    DN(C_7,3,0xF04),
    DN(___,0,0xF03),
    DN(C_7,3,0xF04),
    DN(___,0,0xF03),
    DN(C_7,3,0xF04),
    DN(___,0,0xF03),
    DN(C_7,3,0xF04),
    DN(___,0,0xF03),
};
static const unsigned char P9[] = {
    DN(E_7,3,0x481),
    DN(E_7,4,0x481),
    DN(E_7,5,0x481),
    DN(E_7,6,0x481),
    DN(B_6,7,0x481),
    DN(B_6,8,0x481),
    DN(B_6,9,0x481),
    DN(B_6,10,0x481),
    DN(A_6,11,0x481),
    DN(A_6,12,0x481),
    DN(B_6,13,0x481),
    DN(___,0,0xE01),
    DN(___,0,0x000),
    DN(___,0,0x000),
    DN(D_7,13,0x481),
    DN(D_7,12,0x481),
    DN(D_7,11,0x481),
    DN(D_7,10,0x481),
    DN(D_7,9,0x481),
    DN(D_7,8,0x481),
    DN(C_7,7,0x481),
    DN(C_7,6,0x481),
    DN(C_7,5,0x481),
    DN(C_7,4,0x481),
    DN(B_6,3,0x481),
    DN(B_6,4,0x481),
    DN(B_6,5,0x481),
    DN(B_6,6,0x481),
    DN(D_7,7,0x481),
    DN(D_7,8,0x481),
    DN(Ds7,9,0x481),
    DN(Ds7,10,0x481),
    DN(E_7,11,0x481),
    DN(E_7,12,0x481),
    DN(E_7,13,0x481),
    DN(E_7,14,0x481),
    DN(B_6,15,0x481),
    DN(B_6,14,0x481),
    DN(B_6,13,0x481),
    DN(B_6,12,0x481),
    DN(E_7,11,0x481),
    DN(E_7,10,0x481),
    DN(Fs7,9,0x481),
    DN(Fs7,8,0x481),
    DN(___,0,0xE01),
    DN(___,0,0x000),
    DN(Fs7,5,0x481),
    DN(G_7,4,0x481),
    DN(G_7,3,0x481),
    DN(G_7,4,0x481),
    DN(G_7,5,0x481),
    DN(G_7,6,0x481),
    DN(E_7,7,0x481),
    DN(E_7,8,0x481),
    DN(D_8,9,0x481),
    DN(D_8,10,0x481),
    DN(D_8,11,0x481),
    DN(D_8,12,0x481),
    DN(C_8,13,0x481),
    DN(C_8,14,0x481),
    DN(C_8,15,0x481),
    DN(C_8,14,0x481),
    DN(B_7,13,0x481),
    DN(B_7,12,0x481),
};
static const unsigned char P10[] = {
    DN(B_7,11,0x481),
    DN(B_7,10,0x481),
    DN(C_8,9,0x481),
    DN(C_8,8,0x481),
    DN(B_7,7,0x481),
    DN(B_7,6,0x481),
    DN(G_7,5,0x481),
    DN(G_7,4,0x481),
    DN(G_7,3,0x481),
    DN(G_7,4,0x481),
    DN(G_7,5,0x481),
    DN(G_7,6,0x481),
    DN(G_7,7,0x481),
    DN(G_7,8,0x481),
    DN(A_7,9,0x481),
    DN(A_7,10,0x481),
    DN(A_7,11,0x481),
    DN(A_7,12,0x481),
    DN(B_7,13,0x481),
    DN(B_7,14,0x481),
    DN(A_7,15,0x481),
    DN(A_7,14,0x481),
    DN(Fs7,13,0x481),
    DN(Fs7,12,0x481),
    DN(Fs7,11,0x481),
    DN(Fs7,10,0x481),
    DN(Fs7,9,0x481),
    DN(Fs7,8,0x481),
    DN(A_7,7,0x481),
    DN(A_7,6,0x481),
    DN(A_7,5,0x481),
    DN(A_7,4,0x481),
    DN(Fs7,3,0x481),
    DN(G_7,4,0x481),
    DN(G_7,5,0x481),
    DN(G_7,6,0x481),
    DN(G_7,7,0x481),
    DN(G_7,8,0x481),
    DN(Fs7,9,0x481),
    DN(Fs7,10,0x481),
    DN(Fs7,11,0x481),
    DN(Fs7,12,0x481),
    DN(Fs7,13,0x481),
    DN(Fs7,14,0x481),
    DN(F_7,15,0x481),
    DN(F_7,14,0x481),
    DN(F_7,13,0x481),
    DN(F_7,12,0x481),
    DN(F_7,11,0x481),
    DN(F_7,10,0x481),
    DN(E_7,9,0x481),
    DN(E_7,8,0x481),
    DN(E_7,7,0x481),
    DN(E_7,6,0x481),
    DN(E_7,5,0x481),
    DN(E_7,4,0x481),
    DN(Ds7,3,0x481),
    DN(Ds7,4,0x481),
    DN(Ds7,5,0x481),
    DN(Ds7,6,0x481),
    DN(D_7,7,0x481),
    DN(D_7,8,0x481),
    DN(D_7,9,0x481),
    DN(D_7,10,0x481),
};
static const unsigned char P11[] = {
    DN(___,0,0xE01),
    DN(___,0,0x000),
    DN(Cs7,13,0x481),
    DN(___,0,0xE01),
    DN(Cs7,15,0x481),
    DN(___,0,0xE01),
    DN(Cs7,13,0x481),
    DN(___,0,0xE01),
    DN(Cs7,11,0x481),
    DN(Cs7,10,0x481),
    DN(Cs7,9,0x481),
    DN(Cs7,8,0x481),
    DN(Cs7,7,0x481),
    DN(Cs7,6,0x481),
    DN(D_7,5,0x481),
    DN(D_7,4,0x481),
    DN(D_7,3,0x481),
    DN(D_7,4,0x481),
    DN(D_7,5,0x481),
    DN(D_7,6,0x481),
    DN(F_7,7,0x481),
    DN(F_7,8,0x481),
    DN(F_7,9,0x481),
    DN(F_7,10,0x481),
    DN(F_7,11,0x481),
    DN(F_7,12,0x481),
    DN(G_7,13,0x481),
    DN(G_7,14,0x481),
    DN(G_7,15,0x481),
    DN(G_7,14,0x481),
    DN(G_7,13,0x481),
    DN(G_7,12,0x481),
    DN(D_8,11,0x481),
    DN(D_8,10,0x481),
    DN(D_8,9,0x481),
    DN(D_8,8,0x481),
    DN(D_8,7,0x481),
    DN(D_8,6,0x481),
    DN(Fs8,5,0x481),
    DN(G_8,4,0x481),
    DN(G_8,3,0x481),
    DN(G_8,4,0x481),
    DN(G_8,5,0x481),
    DN(G_8,6,0x481),
    DN(G_8,7,0x481),
    DN(G_8,8,0x481),
    DN(G_8,9,0x481),
    DN(G_8,10,0x481),
    DN(G_8,11,0x481),
    DN(G_8,12,0x481),
    DN(G_8,13,0x481),
    DN(G_8,14,0x481),
    DN(G_8,15,0x481),
    DN(G_8,14,0x481),
    DN(G_8,13,0x481),
    DN(G_8,12,0x481),
    DN(Fs8,11,0x481),
    DN(Fs8,10,0x481),
    DN(G_8,9,0x481),
    DN(G_8,8,0x481),
    DN(Fs8,7,0x481),
    DN(Fs8,6,0x481),
    DN(E_8,5,0x481),
    DN(E_8,4,0x481),
};
static const unsigned char P12[] = {
    DN(E_8,3,0x481),
    DN(E_8,4,0x481),
    DN(E_8,5,0x481),
    DN(E_8,6,0x481),
    DN(E_8,7,0x481),
    DN(E_8,8,0x481),
    DN(E_8,9,0x481),
    DN(E_8,10,0x481),
    DN(E_8,11,0x481),
    DN(E_8,12,0x481),
    DN(E_8,13,0x481),
    DN(E_8,14,0x481),
    DN(E_8,15,0x481),
    DN(E_8,14,0x481),
    DN(E_7,13,0x481),
    DN(E_7,12,0x481),
    DN(E_7,11,0x481),
    DN(E_7,10,0x481),
    DN(E_7,9,0x481),
    DN(E_7,8,0x481),
    DN(E_7,7,0x481),
    DN(E_7,6,0x481),
    DN(E_7,5,0x481),
    DN(E_7,4,0x481),
    DN(E_7,3,0x481),
    DN(E_7,4,0x481),
    DN(E_7,5,0x481),
    DN(E_7,6,0x481),
    DN(E_7,7,0x481),
    DN(E_7,8,0x481),
    DN(E_6,9,0x481),
    DN(E_6,10,0x481),
    DN(E_6,11,0x481),
    DN(E_6,12,0x481),
    DN(E_6,13,0x481),
    DN(E_6,14,0x481),
    DN(E_6,15,0x481),
    DN(E_6,14,0x481),
    DN(E_5,13,0x481),
    DN(E_5,12,0x481),
    DN(E_5,11,0x481),
    DN(E_5,10,0x481),
    DN(E_5,9,0x481),
    DN(E_5,8,0x481),
    DN(E_5,7,0x481),
    DN(E_5,6,0x481),
    DN(E_4,5,0x481),
    DN(E_4,4,0x481),
    DN(E_4,3,0x481),
    DN(E_4,4,0x481),
    DN(E_4,5,0x481),
    DN(E_4,6,0x481),
    DN(E_4,7,0x481),
    DN(E_4,8,0x481),
    DN(E_3,9,0x481),
    DN(E_3,10,0x481),
    DN(E_3,11,0x481),
    DN(E_3,12,0x481),
    DN(E_3,13,0x481),
    DN(E_3,14,0x481),
    DN(E_3,15,0x481),
    DN(E_3,14,0x481),
    DN(E_3,13,0x481),
    DN(E_3,12,0x481),
};

static const unsigned char* const order1[] = {P0,P0,P0,P0,P0,P0,P0,P0,P0,P0,P0,P0,P0};
static const unsigned char* const order2[] = {P1,P2,P2,P2,P2,P2,P2,P2,P3,P2,P2,P2,P2};
static const unsigned char* const order3[] = {P4,P5,P6,P5,P6,P7,P8,P7,P8,P9,P10,P11,P12};
static const unsigned char* const order4[] = {P13,P14,P14,P14,P14,P14,P14,P14,P15,P14,P14,P14,P14};

static const hUGEDutyInstr_t duty_instruments[] = {
    {8,128,240,0,128},
    {8,0,192,0,128},
};
static const hUGEWaveInstr_t wave_instruments[] = {
    {0,32,14,0,128},
    {0,32,13,0,128},
    {0,32,0,0,128},
    {0,32,1,0,128},
    {0,32,2,0,128},
    {0,32,3,0,128},
    {0,32,4,0,128},
    {0,32,5,0,128},
    {0,32,6,0,128},
    {0,32,7,0,128},
    {0,32,8,0,128},
    {0,32,9,0,128},
    {0,32,10,0,128},
    {0,32,11,0,128},
    {0,32,12,0,128},
};
static const hUGENoiseInstr_t noise_instruments[] = {
    {113,0,0,0,0},
    {114,0,0,0,0},
    {241,0,0,0,0},
};

static const unsigned char waves[] = {
    0,0,0,0,0,0,0,0,255,255,255,255,255,255,255,255,
    0,0,0,0,0,0,0,0,15,255,255,255,255,255,255,255,
    0,0,0,0,0,0,0,0,0,255,255,255,255,255,255,255,
    0,0,0,0,0,0,0,0,0,15,255,255,255,255,255,255,
    0,0,0,0,0,0,0,0,0,0,255,255,255,255,255,255,
    0,0,0,0,0,0,0,0,0,0,15,255,255,255,255,255,
    0,0,0,0,0,0,0,0,0,0,0,255,255,255,255,255,
    0,0,0,0,0,0,0,0,0,0,0,15,255,255,255,255,
    0,0,0,0,0,0,0,0,0,0,0,0,255,255,255,255,
    0,0,0,0,0,0,0,0,0,0,0,0,15,255,255,255,
    0,0,0,0,0,0,0,0,0,0,0,0,0,255,255,255,
    0,0,0,0,0,0,0,0,0,0,0,0,0,15,255,255,
    0,0,0,0,0,0,0,0,0,0,0,0,0,0,255,255,
    0,17,34,51,68,85,102,119,136,153,170,187,204,221,238,255,
    1,35,69,103,137,171,205,239,254,220,186,152,118,84,50,16,
};

BANKREF(MUS_BOSS)
const hUGESong_t MUS_BOSS = {3, &order_cnt, order1, order2, order3,order4, duty_instruments, wave_instruments, noise_instruments, NULL, waves};
