#pragma bank 255

#include <gbdk/platform.h>
#include "hUGEDriver.h"
#include <stddef.h>

static const unsigned char order_cnt = 34;

static const unsigned char P0[] = {
    DN(___,0,0x000),
    DN(___,0,0x000),
    DN(___,0,0x000),
    DN(___,0,0x000),
    DN(___,0,0x000),
    DN(___,0,0x000),
    DN(___,0,0x000),
    DN(___,0,0x000),
    DN(___,0,0x000),
    DN(___,0,0x000),
    DN(___,0,0x000),
    DN(___,0,0x000),
    DN(___,0,0x000),
    DN(___,0,0x000),
    DN(___,0,0x000),
    DN(___,0,0x000),
    DN(___,0,0x000),
    DN(___,0,0x000),
    DN(___,0,0x000),
    DN(___,0,0x000),
    DN(___,0,0x000),
    DN(___,0,0x000),
    DN(___,0,0x000),
    DN(___,0,0x000),
    DN(___,0,0x000),
    DN(___,0,0x000),
    DN(___,0,0x000),
    DN(___,0,0x000),
    DN(___,0,0x000),
    DN(___,0,0x000),
    DN(___,0,0x000),
    DN(___,0,0x000),
    DN(___,0,0x000),
    DN(___,0,0x000),
    DN(___,0,0x000),
    DN(___,0,0x000),
    DN(___,0,0x000),
    DN(___,0,0x000),
    DN(___,0,0x000),
    DN(___,0,0x000),
    DN(___,0,0x000),
    DN(___,0,0x000),
    DN(___,0,0x000),
    DN(___,0,0x000),
    DN(___,0,0x000),
    DN(___,0,0x000),
    DN(___,0,0x000),
    DN(___,0,0x000),
    DN(___,0,0x000),
    DN(___,0,0x000),
    DN(___,0,0x000),
    DN(___,0,0x000),
    DN(___,0,0x000),
    DN(___,0,0x000),
    DN(___,0,0x000),
    DN(___,0,0x000),
    DN(___,0,0x000),
    DN(___,0,0x000),
    DN(___,0,0x000),
    DN(___,0,0x000),
    DN(___,0,0x000),
    DN(___,0,0x000),
    DN(___,0,0x000),
    DN(___,0,0x000),
};
static const unsigned char P1[] = {
    DN(G_3,1,0x280),
    DN(Cs3,2,0x000),
    DN(Ds3,2,0x000),
    DN(___,0,0x000),
    DN(E_3,2,0x000),
    DN(___,0,0x000),
    DN(___,0,0x000),
    DN(___,0,0x000),
    DN(C_5,1,0x2FF),
    DN(Cs3,2,0x000),
    DN(Gs3,2,0x000),
    DN(___,0,0x000),
    DN(E_3,2,0x000),
    DN(___,0,0x000),
    DN(___,0,0x000),
    DN(___,0,0x000),
    DN(G_3,1,0x280),
    DN(Cs3,2,0x000),
    DN(Ds3,2,0x000),
    DN(___,0,0x000),
    DN(C_5,1,0x2FF),
    DN(E_3,2,0x000),
    DN(___,0,0x000),
    DN(___,0,0x000),
    DN(G_3,1,0x280),
    DN(Cs3,2,0x000),
    DN(Gs3,2,0x000),
    DN(___,0,0x000),
    DN(C_5,1,0x2FF),
    DN(E_3,2,0x000),
    DN(___,0,0x000),
    DN(___,0,0x000),
    DN(G_3,1,0x280),
    DN(Ds3,2,0x000),
    DN(E_3,2,0x000),
    DN(___,0,0x000),
    DN(Fs3,2,0x000),
    DN(___,0,0x000),
    DN(___,0,0x000),
    DN(___,0,0x000),
    DN(C_5,1,0x2FF),
    DN(Ds3,2,0x000),
    DN(A_3,2,0x000),
    DN(___,0,0x000),
    DN(Fs3,2,0x000),
    DN(___,0,0x000),
    DN(___,0,0x000),
    DN(___,0,0x000),
    DN(G_3,1,0x280),
    DN(Ds3,2,0x000),
    DN(E_3,2,0x000),
    DN(___,0,0x000),
    DN(C_5,1,0x2FF),
    DN(Fs3,2,0x000),
    DN(___,0,0x000),
    DN(___,0,0x000),
    DN(G_3,1,0x280),
    DN(Ds3,2,0x000),
    DN(A_3,2,0x000),
    DN(___,0,0x000),
    DN(C_5,1,0x2FF),
    DN(Fs3,2,0x000),
    DN(___,0,0x000),
    DN(___,0,0x000),
};
static const unsigned char P9[] = {
    DN(Cs6,1,0x481),
    DN(___,0,0x481),
    DN(___,0,0x481),
    DN(___,0,0x481),
    DN(___,0,0x481),
    DN(___,0,0x481),
    DN(___,0,0x481),
    DN(___,0,0x481),
    DN(Gs5,1,0x481),
    DN(___,0,0x481),
    DN(___,0,0x481),
    DN(___,0,0x481),
    DN(___,0,0x481),
    DN(___,0,0x481),
    DN(___,0,0x481),
    DN(___,0,0x481),
    DN(___,0,0x481),
    DN(___,0,0x481),
    DN(___,0,0x481),
    DN(___,0,0x481),
    DN(Cs6,1,0x481),
    DN(___,0,0x481),
    DN(___,0,0x481),
    DN(___,0,0x481),
    DN(___,0,0x481),
    DN(___,0,0x481),
    DN(Gs5,1,0x481),
    DN(___,0,0x481),
    DN(___,0,0x481),
    DN(___,0,0x481),
    DN(___,0,0x481),
    DN(___,0,0x481),
    DN(A_5,1,0x481),
    DN(___,0,0x481),
    DN(___,0,0x481),
    DN(___,0,0x481),
    DN(___,0,0x481),
    DN(___,0,0x481),
    DN(___,0,0x481),
    DN(___,0,0x481),
    DN(___,0,0x481),
    DN(___,0,0x481),
    DN(___,0,0x481),
    DN(___,0,0x481),
    DN(B_5,1,0x481),
    DN(___,0,0x481),
    DN(A_5,1,0x481),
    DN(___,0,0x481),
    DN(Gs5,1,0x481),
    DN(___,0,0x481),
    DN(___,0,0x481),
    DN(___,0,0x481),
    DN(E_5,1,0x481),
    DN(___,0,0x481),
    DN(___,0,0x481),
    DN(___,0,0x481),
    DN(___,0,0x481),
    DN(___,0,0x481),
    DN(Cs5,1,0x481),
    DN(___,0,0x481),
    DN(E_5,1,0x481),
    DN(___,0,0x481),
    DN(___,0,0x481),
    DN(___,0,0x481),
};
static const unsigned char P25[] = {
    DN(C_8,1,0xF06),
    DN(___,0,0x000),
    DN(C_8,1,0x000),
    DN(___,0,0x000),
    DN(C_8,1,0xF03),
    DN(___,0,0x000),
    DN(___,0,0x000),
    DN(___,0,0x000),
    DN(C_7,2,0xF06),
    DN(___,0,0x000),
    DN(C_8,1,0x000),
    DN(___,0,0x000),
    DN(C_8,1,0xF03),
    DN(___,0,0x000),
    DN(___,0,0x000),
    DN(___,0,0x000),
    DN(C_8,1,0xF06),
    DN(___,0,0x000),
    DN(C_8,1,0x000),
    DN(___,0,0x000),
    DN(C_7,2,0xF03),
    DN(___,0,0x000),
    DN(___,0,0x000),
    DN(___,0,0x000),
    DN(C_8,1,0xF06),
    DN(___,0,0x000),
    DN(C_8,1,0x000),
    DN(___,0,0x000),
    DN(C_7,2,0xF03),
    DN(___,0,0x000),
    DN(___,0,0x000),
    DN(___,0,0x000),
    DN(C_8,1,0xF06),
    DN(___,0,0x000),
    DN(C_8,1,0x000),
    DN(___,0,0x000),
    DN(C_8,1,0xF03),
    DN(___,0,0x000),
    DN(___,0,0x000),
    DN(___,0,0x000),
    DN(C_7,2,0xF06),
    DN(___,0,0x000),
    DN(C_8,1,0x000),
    DN(___,0,0x000),
    DN(C_8,1,0xF03),
    DN(___,0,0x000),
    DN(___,0,0x000),
    DN(___,0,0x000),
    DN(C_8,1,0xF06),
    DN(___,0,0x000),
    DN(C_8,1,0x000),
    DN(___,0,0x000),
    DN(C_7,2,0xF03),
    DN(___,0,0x000),
    DN(___,0,0x000),
    DN(___,0,0x000),
    DN(C_8,1,0xF06),
    DN(___,0,0x000),
    DN(C_8,1,0x000),
    DN(___,0,0x000),
    DN(C_7,2,0xF03),
    DN(___,0,0x000),
    DN(___,0,0x000),
    DN(___,0,0x000),
};
static const unsigned char P2[] = {
    DN(G_3,1,0x280),
    DN(D_3,2,0x000),
    DN(E_3,2,0x000),
    DN(___,0,0x000),
    DN(Fs3,2,0x000),
    DN(___,0,0x000),
    DN(___,0,0x000),
    DN(___,0,0x000),
    DN(C_5,1,0x2FF),
    DN(D_3,2,0x000),
    DN(As3,2,0x000),
    DN(___,0,0x000),
    DN(Fs3,2,0x000),
    DN(___,0,0x000),
    DN(___,0,0x000),
    DN(___,0,0x000),
    DN(G_3,1,0x280),
    DN(D_3,2,0x000),
    DN(E_3,2,0x000),
    DN(___,0,0x000),
    DN(C_5,1,0x2FF),
    DN(Fs3,2,0x000),
    DN(___,0,0x000),
    DN(___,0,0x000),
    DN(G_3,1,0x280),
    DN(D_3,2,0x000),
    DN(As3,2,0x000),
    DN(___,0,0x000),
    DN(C_5,1,0x2FF),
    DN(Fs3,2,0x000),
    DN(___,0,0x000),
    DN(___,0,0x000),
    DN(G_3,1,0x280),
    DN(Cs3,2,0x000),
    DN(Ds3,2,0x000),
    DN(___,0,0x000),
    DN(E_3,2,0x000),
    DN(___,0,0x000),
    DN(___,0,0x000),
    DN(___,0,0x000),
    DN(C_5,1,0x2FF),
    DN(Cs3,2,0x000),
    DN(Gs3,2,0x000),
    DN(___,0,0x000),
    DN(E_3,2,0x000),
    DN(___,0,0x000),
    DN(___,0,0x000),
    DN(___,0,0x000),
    DN(G_3,1,0x280),
    DN(Cs3,2,0x000),
    DN(Ds3,2,0x000),
    DN(___,0,0x000),
    DN(C_5,1,0x2FF),
    DN(E_3,2,0x000),
    DN(___,0,0x000),
    DN(___,0,0x000),
    DN(G_3,1,0x280),
    DN(Cs3,2,0x000),
    DN(Gs3,2,0x000),
    DN(___,0,0x000),
    DN(C_5,1,0x2FF),
    DN(E_3,2,0x000),
    DN(___,0,0x000),
    DN(___,0,0x000),
};
static const unsigned char P10[] = {
    DN(Fs5,1,0x481),
    DN(___,0,0x481),
    DN(___,0,0x481),
    DN(___,0,0x481),
    DN(___,0,0x481),
    DN(___,0,0x481),
    DN(___,0,0x481),
    DN(___,0,0x481),
    DN(___,0,0x481),
    DN(___,0,0x481),
    DN(___,0,0x481),
    DN(___,0,0x481),
    DN(Gs5,1,0x481),
    DN(___,0,0x481),
    DN(A_5,1,0x481),
    DN(___,0,0x481),
    DN(Gs5,1,0x481),
    DN(___,0,0x481),
    DN(___,0,0x481),
    DN(___,0,0x481),
    DN(___,0,0x481),
    DN(___,0,0x481),
    DN(___,0,0x481),
    DN(___,0,0x481),
    DN(___,0,0x481),
    DN(___,0,0x481),
    DN(E_5,1,0x481),
    DN(___,0,0x481),
    DN(___,0,0x481),
    DN(___,0,0x481),
    DN(___,0,0x481),
    DN(___,0,0x481),
    DN(Cs5,1,0x481),
    DN(___,0,0x481),
    DN(___,0,0x481),
    DN(___,0,0x481),
    DN(___,0,0x481),
    DN(___,0,0x481),
    DN(___,0,0x481),
    DN(___,0,0x481),
    DN(___,0,0x481),
    DN(___,0,0x481),
    DN(___,0,0x481),
    DN(___,0,0x481),
    DN(___,0,0x481),
    DN(___,0,0x481),
    DN(___,0,0x481),
    DN(___,0,0x481),
    DN(___,0,0x481),
    DN(___,0,0x481),
    DN(___,0,0x481),
    DN(___,0,0x481),
    DN(___,0,0x481),
    DN(___,0,0x481),
    DN(___,0,0x481),
    DN(___,0,0x481),
    DN(___,0,0x481),
    DN(___,0,0x481),
    DN(___,0,0x481),
    DN(___,0,0x481),
    DN(___,0,0x481),
    DN(___,0,0x481),
    DN(___,0,0x481),
    DN(___,0,0x481),
};
static const unsigned char P11[] = {
    DN(Cs6,1,0x481),
    DN(___,0,0x481),
    DN(___,0,0x481),
    DN(___,0,0x481),
    DN(___,0,0x481),
    DN(___,0,0x481),
    DN(___,0,0x481),
    DN(___,0,0x481),
    DN(Gs5,1,0x481),
    DN(___,0,0x481),
    DN(___,0,0x481),
    DN(___,0,0x481),
    DN(___,0,0x481),
    DN(___,0,0x481),
    DN(___,0,0x481),
    DN(___,0,0x481),
    DN(___,0,0x481),
    DN(___,0,0x481),
    DN(___,0,0x481),
    DN(___,0,0x481),
    DN(Cs6,1,0x481),
    DN(___,0,0x481),
    DN(___,0,0x481),
    DN(___,0,0x481),
    DN(___,0,0x481),
    DN(___,0,0x481),
    DN(Gs5,1,0x481),
    DN(___,0,0x481),
    DN(___,0,0x481),
    DN(___,0,0x481),
    DN(___,0,0x481),
    DN(___,0,0x481),
    DN(A_5,1,0x481),
    DN(___,0,0x481),
    DN(___,0,0x481),
    DN(___,0,0x481),
    DN(___,0,0x481),
    DN(___,0,0x481),
    DN(___,0,0x481),
    DN(___,0,0x481),
    DN(___,0,0x481),
    DN(___,0,0x481),
    DN(___,0,0x481),
    DN(___,0,0x481),
    DN(Cs6,1,0x481),
    DN(___,0,0x481),
    DN(E_6,1,0x481),
    DN(___,0,0x481),
    DN(Fs6,1,0x481),
    DN(___,0,0x481),
    DN(___,0,0x481),
    DN(___,0,0x481),
    DN(___,0,0x481),
    DN(___,0,0x481),
    DN(___,0,0x481),
    DN(___,0,0x481),
    DN(E_6,1,0x481),
    DN(___,0,0x481),
    DN(___,0,0x481),
    DN(___,0,0x481),
    DN(Ds6,1,0x481),
    DN(___,0,0x481),
    DN(___,0,0x481),
    DN(___,0,0x481),
};
static const unsigned char P12[] = {
    DN(___,0,0x481),
    DN(___,0,0x481),
    DN(___,0,0x481),
    DN(___,0,0x481),
    DN(E_6,1,0x481),
    DN(___,0,0x481),
    DN(___,0,0x481),
    DN(___,0,0x481),
    DN(___,0,0x481),
    DN(___,0,0x481),
    DN(___,0,0x481),
    DN(___,0,0x481),
    DN(___,0,0x481),
    DN(___,0,0x481),
    DN(Fs6,1,0x481),
    DN(___,0,0x481),
    DN(Gs6,1,0x481),
    DN(___,0,0x481),
    DN(Fs6,1,0x481),
    DN(___,0,0x481),
    DN(A_6,1,0x481),
    DN(___,0,0x481),
    DN(___,0,0x481),
    DN(___,0,0x481),
    DN(___,0,0x481),
    DN(___,0,0x481),
    DN(B_6,1,0x481),
    DN(___,0,0x481),
    DN(A_6,1,0x481),
    DN(___,0,0x481),
    DN(Gs6,1,0x481),
    DN(___,0,0x481),
    DN(___,0,0x481),
    DN(___,0,0x481),
    DN(___,0,0x481),
    DN(___,0,0x481),
    DN(___,0,0x481),
    DN(___,0,0x481),
    DN(___,0,0x481),
    DN(___,0,0x481),
    DN(___,0,0x481),
    DN(___,0,0x481),
    DN(___,0,0x481),
    DN(___,0,0x481),
    DN(___,0,0x481),
    DN(___,0,0x481),
    DN(___,0,0x481),
    DN(___,0,0x481),
    DN(___,0,0x481),
    DN(___,0,0x481),
    DN(___,0,0x481),
    DN(___,0,0x481),
    DN(As6,1,0x481),
    DN(___,0,0x481),
    DN(___,0,0x481),
    DN(___,0,0x481),
    DN(B_6,1,0x481),
    DN(___,0,0x481),
    DN(C_7,1,0x481),
    DN(___,0,0x481),
    DN(___,0,0x481),
    DN(___,0,0x481),
    DN(___,0,0x481),
    DN(___,0,0x481),
};
static const unsigned char P13[] = {
    DN(Cs7,1,0x481),
    DN(___,0,0x481),
    DN(___,0,0x481),
    DN(___,0,0x481),
    DN(___,0,0x481),
    DN(___,0,0x481),
    DN(___,0,0x481),
    DN(___,0,0x481),
    DN(Gs6,1,0x481),
    DN(___,0,0x481),
    DN(___,0,0x481),
    DN(___,0,0x481),
    DN(___,0,0x481),
    DN(___,0,0x481),
    DN(___,0,0x481),
    DN(___,0,0x481),
    DN(Fs6,1,0x481),
    DN(___,0,0x481),
    DN(___,0,0x481),
    DN(___,0,0x481),
    DN(___,0,0x481),
    DN(___,0,0x481),
    DN(___,0,0x481),
    DN(___,0,0x481),
    DN(Gs6,1,0x481),
    DN(___,0,0x481),
    DN(___,0,0x481),
    DN(___,0,0x481),
    DN(___,0,0x481),
    DN(___,0,0x481),
    DN(___,0,0x481),
    DN(___,0,0x481),
    DN(B_6,1,0x481),
    DN(___,0,0x481),
    DN(___,0,0x481),
    DN(___,0,0x481),
    DN(___,0,0x481),
    DN(___,0,0x481),
    DN(___,0,0x481),
    DN(___,0,0x481),
    DN(A_6,1,0x481),
    DN(___,0,0x481),
    DN(___,0,0x481),
    DN(___,0,0x481),
    DN(___,0,0x481),
    DN(___,0,0x481),
    DN(___,0,0x481),
    DN(___,0,0x481),
    DN(Gs6,1,0x481),
    DN(___,0,0x481),
    DN(___,0,0x481),
    DN(___,0,0x481),
    DN(___,0,0x481),
    DN(___,0,0x481),
    DN(___,0,0x481),
    DN(___,0,0x481),
    DN(Ds6,1,0x481),
    DN(___,0,0x481),
    DN(___,0,0x481),
    DN(___,0,0x481),
    DN(___,0,0x481),
    DN(___,0,0x481),
    DN(___,0,0x481),
    DN(___,0,0x481),
};
static const unsigned char P3[] = {
    DN(C_5,1,0x2FF),
    DN(Cs3,2,0x000),
    DN(Ds3,2,0x000),
    DN(___,0,0x000),
    DN(G_3,1,0x280),
    DN(F_3,2,0x000),
    DN(___,0,0x000),
    DN(___,0,0x000),
    DN(C_5,1,0x2FF),
    DN(Cs3,2,0x000),
    DN(Ds3,2,0x000),
    DN(___,0,0x000),
    DN(G_3,1,0x280),
    DN(F_3,2,0x000),
    DN(___,0,0x000),
    DN(___,0,0x000),
    DN(C_5,1,0x2FF),
    DN(Cs3,2,0x000),
    DN(Ds3,2,0x000),
    DN(___,0,0x000),
    DN(G_3,1,0x280),
    DN(F_3,2,0x000),
    DN(___,0,0x000),
    DN(___,0,0x000),
    DN(C_5,1,0x2FF),
    DN(Cs3,2,0x000),
    DN(___,0,0x000),
    DN(___,0,0x000),
    DN(Ds3,2,0x000),
    DN(___,0,0x000),
    DN(___,0,0x000),
    DN(___,0,0x000),
    DN(C_5,1,0x2FF),
    DN(E_3,2,0x000),
    DN(Cs3,2,0x000),
    DN(___,0,0x000),
    DN(G_3,1,0x280),
    DN(Ds3,2,0x000),
    DN(___,0,0x000),
    DN(___,0,0x000),
    DN(C_5,1,0x2FF),
    DN(E_3,2,0x000),
    DN(Cs3,2,0x000),
    DN(___,0,0x000),
    DN(G_3,1,0x280),
    DN(Ds3,2,0x000),
    DN(___,0,0x000),
    DN(___,0,0x000),
    DN(C_5,1,0x2FF),
    DN(E_3,2,0x000),
    DN(Cs3,2,0x000),
    DN(___,0,0x000),
    DN(G_3,1,0x280),
    DN(Ds3,2,0x000),
    DN(___,0,0x000),
    DN(___,0,0x000),
    DN(C_5,1,0x2FF),
    DN(E_3,2,0x000),
    DN(___,0,0x000),
    DN(___,0,0x000),
    DN(Fs3,2,0x000),
    DN(___,0,0x000),
    DN(___,0,0x000),
    DN(___,0,0x000),
};
static const unsigned char P14[] = {
    DN(Gs5,1,0x059),
    DN(___,0,0x059),
    DN(___,0,0x059),
    DN(___,0,0x059),
    DN(___,0,0x059),
    DN(___,0,0x059),
    DN(___,0,0x059),
    DN(___,0,0x059),
    DN(___,0,0x059),
    DN(___,0,0x059),
    DN(___,0,0x059),
    DN(___,0,0x059),
    DN(___,0,0x059),
    DN(___,0,0x059),
    DN(___,0,0x059),
    DN(___,0,0x059),
    DN(___,0,0x059),
    DN(___,0,0x059),
    DN(___,0,0x059),
    DN(___,0,0x059),
    DN(___,0,0x059),
    DN(___,0,0x059),
    DN(___,0,0x059),
    DN(___,0,0x059),
    DN(___,0,0x059),
    DN(___,0,0x059),
    DN(___,0,0x059),
    DN(___,0,0x059),
    DN(___,0,0x059),
    DN(___,0,0x059),
    DN(___,0,0x059),
    DN(___,0,0x059),
    DN(___,0,0x058),
    DN(___,0,0x058),
    DN(___,0,0x058),
    DN(___,0,0x058),
    DN(___,0,0x058),
    DN(___,0,0x058),
    DN(___,0,0x058),
    DN(___,0,0x058),
    DN(___,0,0x058),
    DN(___,0,0x058),
    DN(___,0,0x058),
    DN(___,0,0x058),
    DN(___,0,0x058),
    DN(___,0,0x058),
    DN(___,0,0x058),
    DN(___,0,0x058),
    DN(___,0,0x058),
    DN(___,0,0x058),
    DN(___,0,0x058),
    DN(___,0,0x058),
    DN(___,0,0x058),
    DN(___,0,0x058),
    DN(___,0,0x058),
    DN(___,0,0x058),
    DN(___,0,0x058),
    DN(___,0,0x058),
    DN(___,0,0x058),
    DN(___,0,0x058),
    DN(___,0,0x058),
    DN(___,0,0x058),
    DN(___,0,0x058),
    DN(___,0,0x058),
};
static const unsigned char P26[] = {
    DN(C_7,2,0xF06),
    DN(___,0,0x000),
    DN(C_8,1,0x000),
    DN(___,0,0x000),
    DN(C_8,1,0xF03),
    DN(___,0,0x000),
    DN(___,0,0x000),
    DN(___,0,0x000),
    DN(C_7,2,0xF06),
    DN(___,0,0x000),
    DN(C_8,1,0x000),
    DN(___,0,0x000),
    DN(C_8,1,0xF03),
    DN(___,0,0x000),
    DN(___,0,0x000),
    DN(___,0,0x000),
    DN(C_7,2,0xF06),
    DN(___,0,0x000),
    DN(C_8,1,0x000),
    DN(___,0,0x000),
    DN(C_8,1,0xF03),
    DN(___,0,0x000),
    DN(___,0,0x000),
    DN(___,0,0x000),
    DN(C_7,2,0x000),
    DN(___,0,0x000),
    DN(___,0,0x000),
    DN(___,0,0x000),
    DN(C_8,1,0x000),
    DN(___,0,0x000),
    DN(___,0,0x000),
    DN(___,0,0x000),
    DN(C_7,2,0xF06),
    DN(___,0,0x000),
    DN(C_8,1,0x000),
    DN(___,0,0x000),
    DN(C_8,1,0xF03),
    DN(___,0,0x000),
    DN(___,0,0x000),
    DN(___,0,0x000),
    DN(C_7,2,0xF06),
    DN(___,0,0x000),
    DN(C_8,1,0x000),
    DN(___,0,0x000),
    DN(C_8,1,0xF03),
    DN(___,0,0x000),
    DN(___,0,0x000),
    DN(___,0,0x000),
    DN(C_7,2,0xF06),
    DN(___,0,0x000),
    DN(C_8,1,0x000),
    DN(___,0,0x000),
    DN(C_8,1,0xF03),
    DN(___,0,0x000),
    DN(___,0,0x000),
    DN(___,0,0x000),
    DN(C_7,2,0x000),
    DN(___,0,0x000),
    DN(___,0,0x000),
    DN(___,0,0x000),
    DN(C_8,1,0x000),
    DN(___,0,0x000),
    DN(___,0,0x000),
    DN(___,0,0x000),
};
static const unsigned char P15[] = {
    DN(Cs7,1,0x000),
    DN(___,0,0x481),
    DN(___,0,0x481),
    DN(___,0,0x481),
    DN(___,0,0x481),
    DN(___,0,0x481),
    DN(___,0,0x481),
    DN(___,0,0x481),
    DN(Gs6,1,0x481),
    DN(___,0,0x481),
    DN(___,0,0x481),
    DN(___,0,0x481),
    DN(___,0,0x481),
    DN(___,0,0x481),
    DN(___,0,0x481),
    DN(___,0,0x481),
    DN(Cs7,1,0x481),
    DN(___,0,0x481),
    DN(___,0,0x481),
    DN(___,0,0x481),
    DN(___,0,0x481),
    DN(___,0,0x481),
    DN(___,0,0x481),
    DN(___,0,0x481),
    DN(Ds7,1,0x481),
    DN(___,0,0x481),
    DN(___,0,0x481),
    DN(___,0,0x481),
    DN(___,0,0x481),
    DN(___,0,0x481),
    DN(___,0,0x481),
    DN(___,0,0x481),
    DN(E_7,1,0x481),
    DN(___,0,0x481),
    DN(___,0,0x481),
    DN(___,0,0x481),
    DN(___,0,0x481),
    DN(___,0,0x481),
    DN(___,0,0x481),
    DN(___,0,0x481),
    DN(Cs7,1,0x481),
    DN(___,0,0x481),
    DN(___,0,0x481),
    DN(___,0,0x481),
    DN(___,0,0x481),
    DN(___,0,0x481),
    DN(___,0,0x481),
    DN(As7,1,0x481),
    DN(B_7,1,0x481),
    DN(___,0,0x481),
    DN(___,0,0x481),
    DN(___,0,0x481),
    DN(___,0,0x481),
    DN(___,0,0x481),
    DN(___,0,0x481),
    DN(___,0,0x481),
    DN(As7,1,0x481),
    DN(___,0,0x481),
    DN(___,0,0x481),
    DN(___,0,0x481),
    DN(___,0,0x481),
    DN(___,0,0x481),
    DN(___,0,0x481),
    DN(___,0,0x481),
};
static const unsigned char P4[] = {
    DN(C_5,1,0x2FF),
    DN(Cs3,2,0x000),
    DN(Ds3,2,0x000),
    DN(___,0,0x000),
    DN(G_3,1,0x280),
    DN(F_3,2,0x000),
    DN(___,0,0x000),
    DN(___,0,0x000),
    DN(C_5,1,0x2FF),
    DN(Cs3,2,0x000),
    DN(Ds3,2,0x000),
    DN(___,0,0x000),
    DN(G_3,1,0x280),
    DN(F_3,2,0x000),
    DN(___,0,0x000),
    DN(___,0,0x000),
    DN(C_5,1,0x2FF),
    DN(Cs3,2,0x000),
    DN(Ds3,2,0x000),
    DN(___,0,0x000),
    DN(G_3,1,0x280),
    DN(F_3,2,0x000),
    DN(___,0,0x000),
    DN(___,0,0x000),
    DN(C_5,1,0x2FF),
    DN(Cs3,2,0x000),
    DN(___,0,0x000),
    DN(___,0,0x000),
    DN(Ds3,2,0x000),
    DN(___,0,0x000),
    DN(___,0,0x000),
    DN(___,0,0x000),
    DN(C_5,1,0x2FF),
    DN(Fs3,2,0x000),
    DN(Cs3,2,0x000),
    DN(___,0,0x000),
    DN(G_3,1,0x280),
    DN(Ds3,2,0x000),
    DN(___,0,0x000),
    DN(___,0,0x000),
    DN(C_5,1,0x2FF),
    DN(Fs3,2,0x000),
    DN(Cs3,2,0x000),
    DN(___,0,0x000),
    DN(G_3,1,0x280),
    DN(Ds3,2,0x000),
    DN(___,0,0x000),
    DN(___,0,0x000),
    DN(C_5,1,0x2FF),
    DN(Fs3,2,0x000),
    DN(Cs3,2,0x000),
    DN(___,0,0x000),
    DN(G_3,1,0x280),
    DN(Ds3,2,0x000),
    DN(___,0,0x000),
    DN(___,0,0x000),
    DN(C_5,1,0x2FF),
    DN(Fs3,2,0x000),
    DN(___,0,0x000),
    DN(___,0,0x000),
    DN(Cs3,2,0x000),
    DN(___,0,0x000),
    DN(___,0,0x000),
    DN(___,0,0x000),
};
static const unsigned char P16[] = {
    DN(Cs7,1,0x047),
    DN(___,0,0x047),
    DN(___,0,0x047),
    DN(___,0,0x047),
    DN(___,0,0x047),
    DN(___,0,0x047),
    DN(___,0,0x047),
    DN(___,0,0x047),
    DN(___,0,0x047),
    DN(___,0,0x047),
    DN(___,0,0x047),
    DN(___,0,0x047),
    DN(___,0,0x047),
    DN(___,0,0x047),
    DN(___,0,0x047),
    DN(___,0,0x047),
    DN(___,0,0x047),
    DN(___,0,0x047),
    DN(___,0,0x047),
    DN(___,0,0x047),
    DN(___,0,0x047),
    DN(___,0,0x047),
    DN(___,0,0x047),
    DN(___,0,0x047),
    DN(___,0,0x047),
    DN(___,0,0x047),
    DN(___,0,0x047),
    DN(___,0,0x047),
    DN(___,0,0x047),
    DN(___,0,0x047),
    DN(___,0,0x047),
    DN(___,0,0x047),
    DN(___,0,0x048),
    DN(___,0,0x048),
    DN(___,0,0x048),
    DN(___,0,0x048),
    DN(___,0,0x048),
    DN(___,0,0x048),
    DN(___,0,0x048),
    DN(___,0,0x048),
    DN(___,0,0x048),
    DN(___,0,0x048),
    DN(___,0,0x048),
    DN(___,0,0x048),
    DN(___,0,0x048),
    DN(___,0,0x048),
    DN(___,0,0x048),
    DN(___,0,0x048),
    DN(___,0,0x048),
    DN(___,0,0x048),
    DN(___,0,0x048),
    DN(___,0,0x048),
    DN(___,0,0x048),
    DN(___,0,0x048),
    DN(___,0,0x048),
    DN(___,0,0x048),
    DN(___,0,0x048),
    DN(___,0,0x048),
    DN(___,0,0x048),
    DN(___,0,0x048),
    DN(___,0,0x048),
    DN(___,0,0x048),
    DN(___,0,0x048),
    DN(___,0,0x048),
};
static const unsigned char P5[] = {
    DN(C_5,1,0x2FF),
    DN(E_3,2,0x000),
    DN(G_3,2,0x000),
    DN(___,0,0x000),
    DN(G_3,1,0x280),
    DN(D_3,2,0x000),
    DN(___,0,0x000),
    DN(___,0,0x000),
    DN(C_5,1,0x2FF),
    DN(E_3,2,0x000),
    DN(G_3,2,0x000),
    DN(___,0,0x000),
    DN(G_3,1,0x280),
    DN(D_3,2,0x000),
    DN(___,0,0x000),
    DN(___,0,0x000),
    DN(C_5,1,0x2FF),
    DN(E_3,2,0x000),
    DN(G_3,2,0x000),
    DN(___,0,0x000),
    DN(G_3,1,0x280),
    DN(D_3,2,0x000),
    DN(___,0,0x000),
    DN(___,0,0x000),
    DN(C_5,1,0x2FF),
    DN(E_3,2,0x000),
    DN(___,0,0x000),
    DN(___,0,0x000),
    DN(G_3,2,0x000),
    DN(___,0,0x000),
    DN(___,0,0x000),
    DN(___,0,0x000),
    DN(C_5,1,0x2FF),
    DN(E_3,2,0x000),
    DN(Fs3,2,0x000),
    DN(___,0,0x000),
    DN(G_3,1,0x280),
    DN(Gs3,2,0x000),
    DN(___,0,0x000),
    DN(___,0,0x000),
    DN(C_5,1,0x2FF),
    DN(E_3,2,0x000),
    DN(Fs3,2,0x000),
    DN(___,0,0x000),
    DN(G_3,1,0x280),
    DN(Gs3,2,0x000),
    DN(___,0,0x000),
    DN(___,0,0x000),
    DN(C_5,1,0x2FF),
    DN(E_3,2,0x000),
    DN(Fs3,2,0x000),
    DN(___,0,0x000),
    DN(G_3,1,0x280),
    DN(Gs3,2,0x000),
    DN(___,0,0x000),
    DN(___,0,0x000),
    DN(C_5,1,0x2FF),
    DN(A_3,2,0x000),
    DN(As3,2,0x000),
    DN(C_5,1,0x2FF),
    DN(B_3,2,0x000),
    DN(C_5,1,0x2FF),
    DN(B_4,2,0x000),
    DN(___,0,0x000),
};
static const unsigned char P17[] = {
    DN(D_7,1,0x038),
    DN(___,0,0x038),
    DN(___,0,0x038),
    DN(___,0,0x038),
    DN(___,0,0x038),
    DN(___,0,0x038),
    DN(___,0,0x038),
    DN(___,0,0x038),
    DN(___,0,0x038),
    DN(___,0,0x038),
    DN(___,0,0x038),
    DN(___,0,0x038),
    DN(___,0,0x038),
    DN(___,0,0x038),
    DN(___,0,0x038),
    DN(___,0,0x038),
    DN(___,0,0x038),
    DN(___,0,0x038),
    DN(___,0,0x038),
    DN(___,0,0x038),
    DN(___,0,0x038),
    DN(___,0,0x038),
    DN(___,0,0x038),
    DN(___,0,0x038),
    DN(___,0,0x038),
    DN(___,0,0x038),
    DN(___,0,0x038),
    DN(___,0,0x038),
    DN(___,0,0x038),
    DN(___,0,0x038),
    DN(___,0,0x038),
    DN(___,0,0x038),
    DN(___,0,0x029),
    DN(___,0,0x029),
    DN(___,0,0x029),
    DN(___,0,0x029),
    DN(___,0,0x029),
    DN(___,0,0x029),
    DN(___,0,0x029),
    DN(___,0,0x029),
    DN(___,0,0x029),
    DN(___,0,0x029),
    DN(___,0,0x029),
    DN(___,0,0x029),
    DN(___,0,0x029),
    DN(___,0,0x029),
    DN(___,0,0x029),
    DN(___,0,0x029),
    DN(___,0,0x029),
    DN(___,0,0x029),
    DN(___,0,0x029),
    DN(___,0,0x029),
    DN(___,0,0x029),
    DN(___,0,0x029),
    DN(___,0,0x029),
    DN(___,0,0x029),
    DN(___,0,0x029),
    DN(___,0,0x029),
    DN(___,0,0x029),
    DN(___,0,0x029),
    DN(___,0,0x029),
    DN(___,0,0x029),
    DN(___,0,0x029),
    DN(___,0,0x029),
};
static const unsigned char P27[] = {
    DN(C_7,2,0xF06),
    DN(___,0,0x000),
    DN(C_8,1,0x000),
    DN(___,0,0x000),
    DN(C_8,1,0xF03),
    DN(___,0,0x000),
    DN(___,0,0x000),
    DN(___,0,0x000),
    DN(C_7,2,0xF06),
    DN(___,0,0x000),
    DN(C_8,1,0x000),
    DN(___,0,0x000),
    DN(C_8,1,0xF03),
    DN(___,0,0x000),
    DN(___,0,0x000),
    DN(___,0,0x000),
    DN(C_7,2,0xF06),
    DN(___,0,0x000),
    DN(C_8,1,0x000),
    DN(___,0,0x000),
    DN(C_8,1,0xF03),
    DN(___,0,0x000),
    DN(___,0,0x000),
    DN(___,0,0x000),
    DN(C_7,2,0x000),
    DN(___,0,0x000),
    DN(___,0,0x000),
    DN(___,0,0x000),
    DN(C_8,1,0x000),
    DN(___,0,0x000),
    DN(___,0,0x000),
    DN(___,0,0x000),
    DN(C_7,2,0xF06),
    DN(___,0,0x000),
    DN(C_8,1,0x000),
    DN(___,0,0x000),
    DN(C_8,1,0xF03),
    DN(___,0,0x000),
    DN(___,0,0x000),
    DN(___,0,0x000),
    DN(C_7,2,0xF06),
    DN(___,0,0x000),
    DN(C_8,1,0x000),
    DN(___,0,0x000),
    DN(C_8,1,0xF03),
    DN(___,0,0x000),
    DN(___,0,0x000),
    DN(___,0,0x000),
    DN(C_7,2,0xF06),
    DN(___,0,0x000),
    DN(C_8,1,0x000),
    DN(___,0,0x000),
    DN(C_8,1,0xF03),
    DN(___,0,0x000),
    DN(___,0,0x000),
    DN(___,0,0x000),
    DN(C_7,2,0xF06),
    DN(___,0,0x000),
    DN(C_8,1,0x000),
    DN(C_7,2,0x000),
    DN(___,0,0x000),
    DN(C_7,2,0x000),
    DN(___,0,0xF03),
    DN(___,0,0x000),
};
static const unsigned char P6[] = {
    DN(G_3,1,0x280),
    DN(E_3,2,0x000),
    DN(___,0,0x000),
    DN(___,0,0x000),
    DN(___,0,0x000),
    DN(___,0,0x000),
    DN(___,0,0x000),
    DN(___,0,0x000),
    DN(C_5,1,0x2FF),
    DN(Fs3,2,0x000),
    DN(___,0,0x000),
    DN(___,0,0x000),
    DN(___,0,0x000),
    DN(___,0,0x000),
    DN(___,0,0x000),
    DN(___,0,0x000),
    DN(G_3,1,0x280),
    DN(Gs3,2,0x000),
    DN(___,0,0x000),
    DN(___,0,0x000),
    DN(E_4,2,0x000),
    DN(___,0,0x000),
    DN(___,0,0x000),
    DN(___,0,0x000),
    DN(C_5,1,0x2FF),
    DN(E_3,2,0x000),
    DN(___,0,0x000),
    DN(___,0,0x000),
    DN(Ds3,2,0x000),
    DN(___,0,0x000),
    DN(___,0,0x000),
    DN(___,0,0x000),
    DN(G_3,1,0x280),
    DN(Ds3,2,0x000),
    DN(___,0,0x000),
    DN(___,0,0x000),
    DN(___,0,0x000),
    DN(___,0,0x000),
    DN(___,0,0x000),
    DN(___,0,0x000),
    DN(C_5,1,0x2FF),
    DN(E_3,2,0x000),
    DN(___,0,0x000),
    DN(___,0,0x000),
    DN(___,0,0x000),
    DN(___,0,0x000),
    DN(___,0,0x000),
    DN(___,0,0x000),
    DN(G_3,1,0x280),
    DN(Fs3,2,0x000),
    DN(___,0,0x000),
    DN(___,0,0x000),
    DN(Ds4,2,0x000),
    DN(___,0,0x000),
    DN(___,0,0x000),
    DN(___,0,0x000),
    DN(C_5,1,0x2FF),
    DN(Ds3,2,0x000),
    DN(___,0,0x000),
    DN(___,0,0x000),
    DN(Cs3,2,0x000),
    DN(___,0,0x000),
    DN(___,0,0x000),
    DN(___,0,0x000),
};
static const unsigned char P18[] = {
    DN(___,0,0xE01),
    DN(___,0,0x000),
    DN(___,0,0x000),
    DN(___,0,0x000),
    DN(___,0,0x000),
    DN(___,0,0x000),
    DN(___,0,0x000),
    DN(___,0,0x000),
    DN(Gs7,2,0x481),
    DN(Gs7,3,0x481),
    DN(Gs7,4,0x481),
    DN(Gs7,5,0x481),
    DN(Fs7,6,0x481),
    DN(Fs7,7,0x481),
    DN(Fs7,8,0x481),
    DN(Fs7,9,0x481),
    DN(Fs7,10,0x481),
    DN(Fs7,11,0x481),
    DN(Fs7,12,0x481),
    DN(Fs7,13,0x481),
    DN(Fs7,14,0x481),
    DN(Fs7,13,0x481),
    DN(Fs7,12,0x481),
    DN(Fs7,11,0x481),
    DN(Gs7,10,0x481),
    DN(Gs7,9,0x481),
    DN(Gs7,8,0x481),
    DN(Gs7,7,0x481),
    DN(E_7,6,0x481),
    DN(E_7,5,0x481),
    DN(E_7,4,0x481),
    DN(E_7,3,0x481),
    DN(E_7,2,0x481),
    DN(E_7,3,0x481),
    DN(E_7,4,0x481),
    DN(E_7,5,0x481),
    DN(E_7,6,0x481),
    DN(E_7,7,0x481),
    DN(E_7,8,0x481),
    DN(E_7,9,0x481),
    DN(Gs7,10,0x481),
    DN(Gs7,11,0x481),
    DN(Gs7,12,0x481),
    DN(Gs7,13,0x481),
    DN(Fs7,14,0x481),
    DN(Fs7,13,0x481),
    DN(Fs7,12,0x481),
    DN(Fs7,11,0x481),
    DN(Fs7,10,0x481),
    DN(Fs7,9,0x481),
    DN(Fs7,8,0x481),
    DN(Fs7,7,0x481),
    DN(Fs7,6,0x481),
    DN(Fs7,5,0x481),
    DN(Fs7,4,0x481),
    DN(Fs7,3,0x481),
    DN(Ds7,2,0x481),
    DN(Ds7,3,0x481),
    DN(Ds7,4,0x481),
    DN(Ds7,5,0x481),
    DN(E_7,6,0x481),
    DN(E_7,7,0x481),
    DN(E_7,8,0x481),
    DN(E_7,9,0x481),
};
static const unsigned char P28[] = {
    DN(G_6,3,0x000),
    DN(___,0,0x000),
    DN(___,0,0x000),
    DN(___,0,0x000),
    DN(___,0,0x000),
    DN(___,0,0x000),
    DN(___,0,0x000),
    DN(___,0,0x000),
    DN(C_7,2,0x000),
    DN(___,0,0x000),
    DN(___,0,0x000),
    DN(___,0,0x000),
    DN(C_8,1,0x000),
    DN(___,0,0x000),
    DN(___,0,0x000),
    DN(___,0,0x000),
    DN(C_8,1,0x000),
    DN(___,0,0x000),
    DN(___,0,0x000),
    DN(___,0,0x000),
    DN(C_8,1,0x000),
    DN(___,0,0x000),
    DN(___,0,0x000),
    DN(___,0,0x000),
    DN(C_7,2,0x000),
    DN(___,0,0x000),
    DN(___,0,0x000),
    DN(___,0,0x000),
    DN(C_8,1,0x000),
    DN(___,0,0x000),
    DN(___,0,0x000),
    DN(___,0,0x000),
    DN(C_8,1,0x000),
    DN(___,0,0x000),
    DN(___,0,0x000),
    DN(___,0,0x000),
    DN(C_8,1,0x000),
    DN(___,0,0x000),
    DN(___,0,0x000),
    DN(___,0,0x000),
    DN(C_7,2,0x000),
    DN(___,0,0x000),
    DN(___,0,0x000),
    DN(___,0,0x000),
    DN(C_8,1,0x000),
    DN(___,0,0x000),
    DN(___,0,0x000),
    DN(___,0,0x000),
    DN(C_8,1,0x000),
    DN(___,0,0x000),
    DN(___,0,0x000),
    DN(___,0,0x000),
    DN(C_8,1,0x000),
    DN(___,0,0x000),
    DN(___,0,0x000),
    DN(___,0,0x000),
    DN(C_7,2,0x000),
    DN(___,0,0x000),
    DN(___,0,0x000),
    DN(___,0,0x000),
    DN(C_8,1,0x000),
    DN(___,0,0x000),
    DN(___,0,0x000),
    DN(___,0,0x000),
};
static const unsigned char P7[] = {
    DN(G_3,1,0x280),
    DN(Cs3,2,0x000),
    DN(___,0,0x000),
    DN(___,0,0x000),
    DN(___,0,0x000),
    DN(___,0,0x000),
    DN(___,0,0x000),
    DN(___,0,0x000),
    DN(C_5,1,0x2FF),
    DN(Ds3,2,0x000),
    DN(___,0,0x000),
    DN(___,0,0x000),
    DN(___,0,0x000),
    DN(___,0,0x000),
    DN(___,0,0x000),
    DN(___,0,0x000),
    DN(G_3,1,0x280),
    DN(E_3,2,0x000),
    DN(___,0,0x000),
    DN(___,0,0x000),
    DN(Cs4,2,0x000),
    DN(___,0,0x000),
    DN(___,0,0x000),
    DN(___,0,0x000),
    DN(C_5,1,0x2FF),
    DN(B_3,2,0x000),
    DN(___,0,0x000),
    DN(___,0,0x000),
    DN(A_3,2,0x000),
    DN(___,0,0x000),
    DN(___,0,0x000),
    DN(___,0,0x000),
    DN(G_3,1,0x280),
    DN(A_3,2,0x000),
    DN(___,0,0x000),
    DN(___,0,0x000),
    DN(A_4,2,0x000),
    DN(___,0,0x000),
    DN(___,0,0x000),
    DN(___,0,0x000),
    DN(C_5,1,0x2FF),
    DN(A_3,2,0x000),
    DN(___,0,0x000),
    DN(___,0,0x000),
    DN(B_3,2,0x000),
    DN(___,0,0x000),
    DN(___,0,0x000),
    DN(___,0,0x000),
    DN(G_3,1,0x280),
    DN(B_3,2,0x000),
    DN(___,0,0x000),
    DN(___,0,0x000),
    DN(B_4,2,0x000),
    DN(___,0,0x000),
    DN(___,0,0x000),
    DN(___,0,0x000),
    DN(C_5,1,0x2FF),
    DN(B_3,2,0x000),
    DN(___,0,0x000),
    DN(___,0,0x000),
    DN(C_5,1,0x2FF),
    DN(B_3,2,0x000),
    DN(___,0,0x000),
    DN(___,0,0x000),
};
static const unsigned char P19[] = {
    DN(___,0,0xE01),
    DN(___,0,0x000),
    DN(___,0,0x000),
    DN(___,0,0x000),
    DN(___,0,0x000),
    DN(___,0,0x000),
    DN(___,0,0x000),
    DN(___,0,0x000),
    DN(Gs7,10,0x481),
    DN(Gs7,9,0x481),
    DN(Gs7,8,0x481),
    DN(Gs7,7,0x481),
    DN(Fs7,6,0x481),
    DN(Fs7,5,0x481),
    DN(Fs7,4,0x481),
    DN(Fs7,3,0x481),
    DN(Fs7,2,0x481),
    DN(Fs7,3,0x481),
    DN(Fs7,4,0x481),
    DN(Fs7,5,0x481),
    DN(Fs7,6,0x481),
    DN(Fs7,7,0x481),
    DN(Fs7,8,0x481),
    DN(Fs7,9,0x481),
    DN(Gs7,10,0x481),
    DN(Gs7,11,0x481),
    DN(Gs7,12,0x481),
    DN(Gs7,13,0x481),
    DN(A_7,14,0x481),
    DN(A_7,13,0x481),
    DN(A_7,12,0x481),
    DN(A_7,11,0x481),
    DN(A_7,10,0x481),
    DN(A_7,9,0x481),
    DN(A_7,8,0x481),
    DN(A_7,7,0x481),
    DN(A_7,6,0x481),
    DN(A_7,5,0x481),
    DN(A_7,4,0x481),
    DN(A_7,3,0x481),
    DN(Gs7,2,0x481),
    DN(Gs7,3,0x481),
    DN(Gs7,4,0x481),
    DN(Gs7,5,0x481),
    DN(Fs7,6,0x481),
    DN(Fs7,7,0x481),
    DN(Fs7,8,0x481),
    DN(Fs7,9,0x481),
    DN(Fs7,10,0x481),
    DN(Fs7,11,0x481),
    DN(Fs7,12,0x481),
    DN(Fs7,13,0x481),
    DN(Fs7,14,0x481),
    DN(Fs7,13,0x481),
    DN(Fs7,12,0x481),
    DN(Fs7,11,0x481),
    DN(Ds7,10,0x481),
    DN(Ds7,9,0x481),
    DN(Ds7,8,0x481),
    DN(Ds7,7,0x481),
    DN(Ds7,6,0x481),
    DN(Ds7,5,0x481),
    DN(Ds7,4,0x481),
    DN(Ds7,3,0x481),
};
static const unsigned char P29[] = {
    DN(C_8,1,0x000),
    DN(___,0,0x000),
    DN(___,0,0x000),
    DN(___,0,0x000),
    DN(C_8,1,0x000),
    DN(___,0,0x000),
    DN(___,0,0x000),
    DN(___,0,0x000),
    DN(C_7,2,0x000),
    DN(___,0,0x000),
    DN(___,0,0x000),
    DN(___,0,0x000),
    DN(C_8,1,0x000),
    DN(___,0,0x000),
    DN(___,0,0x000),
    DN(___,0,0x000),
    DN(C_8,1,0x000),
    DN(___,0,0x000),
    DN(___,0,0x000),
    DN(___,0,0x000),
    DN(C_8,1,0x000),
    DN(___,0,0x000),
    DN(___,0,0x000),
    DN(___,0,0x000),
    DN(C_7,2,0x000),
    DN(___,0,0x000),
    DN(___,0,0x000),
    DN(___,0,0x000),
    DN(C_8,1,0x000),
    DN(___,0,0x000),
    DN(___,0,0x000),
    DN(___,0,0x000),
    DN(C_8,1,0x000),
    DN(___,0,0x000),
    DN(___,0,0x000),
    DN(___,0,0x000),
    DN(C_8,1,0x000),
    DN(___,0,0x000),
    DN(___,0,0x000),
    DN(___,0,0x000),
    DN(C_7,2,0x000),
    DN(___,0,0x000),
    DN(___,0,0x000),
    DN(___,0,0x000),
    DN(C_8,1,0x000),
    DN(___,0,0x000),
    DN(___,0,0x000),
    DN(___,0,0x000),
    DN(C_8,1,0x000),
    DN(___,0,0x000),
    DN(___,0,0x000),
    DN(___,0,0x000),
    DN(C_8,1,0x000),
    DN(___,0,0x000),
    DN(___,0,0x000),
    DN(___,0,0x000),
    DN(C_7,2,0x000),
    DN(___,0,0x000),
    DN(___,0,0x000),
    DN(___,0,0x000),
    DN(C_7,2,0x000),
    DN(___,0,0x000),
    DN(___,0,0x000),
    DN(___,0,0x000),
};
static const unsigned char P8[] = {
    DN(G_3,1,0x280),
    DN(Cs3,2,0x000),
    DN(___,0,0x000),
    DN(___,0,0x000),
    DN(___,0,0x000),
    DN(___,0,0x000),
    DN(___,0,0x000),
    DN(___,0,0x000),
    DN(C_5,1,0x2FF),
    DN(Ds3,2,0x000),
    DN(___,0,0x000),
    DN(___,0,0x000),
    DN(___,0,0x000),
    DN(___,0,0x000),
    DN(___,0,0x000),
    DN(___,0,0x000),
    DN(G_3,1,0x280),
    DN(E_3,2,0x000),
    DN(___,0,0x000),
    DN(___,0,0x000),
    DN(Cs4,2,0x000),
    DN(___,0,0x000),
    DN(___,0,0x000),
    DN(___,0,0x000),
    DN(C_5,1,0x2FF),
    DN(B_3,2,0x000),
    DN(___,0,0x000),
    DN(___,0,0x000),
    DN(A_3,2,0x000),
    DN(___,0,0x000),
    DN(___,0,0x000),
    DN(___,0,0x000),
    DN(G_3,1,0x280),
    DN(A_3,2,0x000),
    DN(___,0,0x000),
    DN(___,0,0x000),
    DN(A_4,2,0x000),
    DN(___,0,0x000),
    DN(___,0,0x000),
    DN(___,0,0x000),
    DN(C_5,1,0x2FF),
    DN(A_3,2,0x000),
    DN(___,0,0x000),
    DN(___,0,0x000),
    DN(B_3,2,0x000),
    DN(___,0,0x000),
    DN(___,0,0x000),
    DN(___,0,0x000),
    DN(G_3,1,0x280),
    DN(B_3,2,0x000),
    DN(___,0,0x000),
    DN(___,0,0x000),
    DN(C_5,1,0x2FF),
    DN(B_4,2,0x000),
    DN(___,0,0x000),
    DN(___,0,0x000),
    DN(B_3,2,0x000),
    DN(___,0,0x000),
    DN(___,0,0x000),
    DN(___,0,0x000),
    DN(C_5,1,0x2FF),
    DN(B_3,2,0x000),
    DN(___,0,0x000),
    DN(___,0,0x000),
};
static const unsigned char P20[] = {
    DN(___,0,0xE01),
    DN(___,0,0x000),
    DN(___,0,0x000),
    DN(___,0,0x000),
    DN(___,0,0x000),
    DN(___,0,0x000),
    DN(___,0,0x000),
    DN(___,0,0x000),
    DN(Gs7,10,0x481),
    DN(Gs7,9,0x481),
    DN(Gs7,8,0x481),
    DN(Gs7,7,0x481),
    DN(Fs7,6,0x481),
    DN(Fs7,5,0x481),
    DN(Fs7,4,0x481),
    DN(Fs7,3,0x481),
    DN(Fs7,2,0x481),
    DN(Fs7,3,0x481),
    DN(Fs7,4,0x481),
    DN(Fs7,5,0x481),
    DN(Fs7,6,0x481),
    DN(Fs7,7,0x481),
    DN(Fs7,8,0x481),
    DN(Fs7,9,0x481),
    DN(Gs7,10,0x481),
    DN(Gs7,11,0x481),
    DN(Gs7,12,0x481),
    DN(Gs7,13,0x481),
    DN(A_7,14,0x481),
    DN(A_7,13,0x481),
    DN(A_7,12,0x481),
    DN(A_7,11,0x481),
    DN(A_7,10,0x481),
    DN(A_7,9,0x481),
    DN(A_7,8,0x481),
    DN(A_7,7,0x481),
    DN(A_7,6,0x481),
    DN(A_7,5,0x481),
    DN(A_7,4,0x481),
    DN(A_7,3,0x481),
    DN(Gs7,2,0x481),
    DN(Gs7,3,0x481),
    DN(Gs7,4,0x481),
    DN(Gs7,5,0x481),
    DN(Fs7,6,0x481),
    DN(Fs7,7,0x481),
    DN(Fs7,8,0x481),
    DN(Fs7,9,0x481),
    DN(Fs7,10,0x481),
    DN(Fs7,11,0x481),
    DN(Fs7,12,0x481),
    DN(Fs7,13,0x481),
    DN(Fs7,14,0x481),
    DN(Fs7,13,0x481),
    DN(Fs7,12,0x481),
    DN(Fs7,11,0x481),
    DN(A_7,10,0x481),
    DN(B_7,9,0x481),
    DN(B_7,8,0x481),
    DN(B_7,7,0x481),
    DN(B_7,6,0x481),
    DN(B_7,5,0x481),
    DN(B_7,4,0x481),
    DN(B_7,3,0x481),
};
static const unsigned char P30[] = {
    DN(C_8,1,0x000),
    DN(___,0,0x000),
    DN(___,0,0x000),
    DN(___,0,0x000),
    DN(C_8,1,0x000),
    DN(___,0,0x000),
    DN(___,0,0x000),
    DN(___,0,0x000),
    DN(C_7,2,0x000),
    DN(___,0,0x000),
    DN(___,0,0x000),
    DN(___,0,0x000),
    DN(C_8,1,0x000),
    DN(___,0,0x000),
    DN(___,0,0x000),
    DN(___,0,0x000),
    DN(C_8,1,0x000),
    DN(___,0,0x000),
    DN(___,0,0x000),
    DN(___,0,0x000),
    DN(C_8,1,0x000),
    DN(___,0,0x000),
    DN(___,0,0x000),
    DN(___,0,0x000),
    DN(C_7,2,0x000),
    DN(___,0,0x000),
    DN(___,0,0x000),
    DN(___,0,0x000),
    DN(C_8,1,0x000),
    DN(___,0,0x000),
    DN(___,0,0x000),
    DN(___,0,0x000),
    DN(C_8,1,0x000),
    DN(___,0,0x000),
    DN(___,0,0x000),
    DN(___,0,0x000),
    DN(C_8,1,0x000),
    DN(___,0,0x000),
    DN(___,0,0x000),
    DN(___,0,0x000),
    DN(C_7,2,0x000),
    DN(___,0,0x000),
    DN(___,0,0x000),
    DN(___,0,0x000),
    DN(C_8,1,0x000),
    DN(___,0,0x000),
    DN(___,0,0x000),
    DN(___,0,0x000),
    DN(C_8,1,0x000),
    DN(___,0,0x000),
    DN(___,0,0x000),
    DN(___,0,0x000),
    DN(C_7,2,0x000),
    DN(___,0,0x000),
    DN(___,0,0x000),
    DN(___,0,0x000),
    DN(C_8,4,0x000),
    DN(___,0,0x000),
    DN(___,0,0x000),
    DN(___,0,0x000),
    DN(C_7,2,0x000),
    DN(___,0,0x000),
    DN(___,0,0x000),
    DN(___,0,0x000),
};
static const unsigned char P21[] = {
    DN(B_7,2,0x481),
    DN(B_7,3,0x481),
    DN(B_7,4,0x481),
    DN(B_7,5,0x481),
    DN(B_7,6,0x481),
    DN(B_7,7,0x481),
    DN(B_7,8,0x481),
    DN(B_7,9,0x481),
    DN(B_7,10,0x481),
    DN(B_7,11,0x481),
    DN(B_7,12,0x481),
    DN(B_7,13,0x481),
    DN(B_7,14,0x481),
    DN(B_7,13,0x481),
    DN(B_7,12,0x481),
    DN(B_7,11,0x481),
    DN(B_7,10,0x481),
    DN(B_7,9,0x481),
    DN(B_7,8,0x481),
    DN(B_7,7,0x481),
    DN(B_7,6,0x481),
    DN(B_7,5,0x481),
    DN(B_7,4,0x481),
    DN(B_7,3,0x481),
    DN(B_7,2,0x481),
    DN(B_7,3,0x481),
    DN(B_7,4,0x481),
    DN(B_7,5,0x481),
    DN(Gs7,6,0x481),
    DN(Gs7,7,0x481),
    DN(Gs7,8,0x481),
    DN(Gs7,9,0x481),
    DN(B_7,10,0x481),
    DN(B_7,11,0x481),
    DN(B_7,12,0x481),
    DN(B_7,13,0x481),
    DN(Cs8,14,0x481),
    DN(Cs8,13,0x481),
    DN(Cs8,12,0x481),
    DN(Cs8,11,0x481),
    DN(Fs8,10,0x481),
    DN(Fs8,9,0x481),
    DN(Fs8,8,0x481),
    DN(Fs8,7,0x481),
    DN(E_8,6,0x481),
    DN(E_8,5,0x481),
    DN(E_8,4,0x481),
    DN(E_8,3,0x481),
    DN(E_8,2,0x481),
    DN(E_8,3,0x481),
    DN(E_8,4,0x481),
    DN(E_8,5,0x481),
    DN(Ds8,6,0x481),
    DN(Ds8,7,0x481),
    DN(Ds8,8,0x481),
    DN(Ds8,9,0x481),
    DN(Cs8,10,0x481),
    DN(Cs8,11,0x481),
    DN(Cs8,12,0x481),
    DN(Cs8,13,0x481),
    DN(As7,14,0x481),
    DN(B_7,13,0x481),
    DN(B_7,12,0x481),
    DN(B_7,11,0x481),
};
static const unsigned char P22[] = {
    DN(B_7,10,0x481),
    DN(B_7,9,0x481),
    DN(B_7,8,0x481),
    DN(B_7,7,0x481),
    DN(A_7,6,0x481),
    DN(A_7,5,0x481),
    DN(A_7,4,0x481),
    DN(A_7,3,0x481),
    DN(Gs7,2,0x481),
    DN(Gs7,3,0x481),
    DN(Gs7,4,0x481),
    DN(Gs7,5,0x481),
    DN(Fs7,6,0x481),
    DN(Fs7,7,0x481),
    DN(Fs7,8,0x481),
    DN(Fs7,9,0x481),
    DN(Fs7,10,0x481),
    DN(Fs7,11,0x481),
    DN(Fs7,12,0x481),
    DN(Fs7,13,0x481),
    DN(Gs7,14,0x481),
    DN(Gs7,13,0x481),
    DN(Gs7,12,0x481),
    DN(Gs7,11,0x481),
    DN(A_7,10,0x481),
    DN(A_7,9,0x481),
    DN(A_7,8,0x481),
    DN(A_7,7,0x481),
    DN(G_7,6,0x481),
    DN(Gs7,5,0x481),
    DN(Gs7,4,0x481),
    DN(Gs7,3,0x481),
    DN(Gs7,2,0x481),
    DN(Gs7,3,0x481),
    DN(Gs7,4,0x481),
    DN(Gs7,5,0x481),
    DN(E_7,6,0x481),
    DN(E_7,7,0x481),
    DN(E_7,8,0x481),
    DN(E_7,9,0x481),
    DN(E_7,10,0x481),
    DN(E_7,11,0x481),
    DN(E_7,12,0x481),
    DN(E_7,13,0x481),
    DN(B_6,14,0x481),
    DN(B_6,13,0x481),
    DN(B_6,12,0x481),
    DN(B_6,11,0x481),
    DN(B_6,10,0x481),
    DN(B_6,9,0x481),
    DN(B_6,8,0x481),
    DN(B_6,7,0x481),
    DN(B_6,6,0x481),
    DN(B_6,5,0x481),
    DN(B_6,4,0x481),
    DN(B_6,3,0x481),
    DN(B_6,2,0x481),
    DN(B_6,3,0x481),
    DN(B_6,4,0x481),
    DN(B_6,5,0x481),
    DN(B_6,6,0x481),
    DN(B_6,7,0x481),
    DN(B_6,8,0x481),
    DN(B_6,9,0x481),
};
static const unsigned char P23[] = {
    DN(Gs7,10,0x481),
    DN(Gs7,11,0x481),
    DN(E_7,12,0x481),
    DN(E_7,13,0x481),
    DN(B_6,14,0x481),
    DN(B_6,13,0x481),
    DN(E_7,12,0x481),
    DN(E_7,11,0x481),
    DN(Gs7,10,0x481),
    DN(Gs7,9,0x481),
    DN(E_7,8,0x481),
    DN(E_7,7,0x481),
    DN(B_6,6,0x481),
    DN(B_6,5,0x481),
    DN(E_7,4,0x481),
    DN(___,3,0x481),
    DN(Gs7,2,0x481),
    DN(Gs7,3,0x481),
    DN(E_7,4,0x481),
    DN(E_7,5,0x481),
    DN(B_6,6,0x481),
    DN(B_6,7,0x481),
    DN(E_7,8,0x481),
    DN(E_7,9,0x481),
    DN(Gs7,10,0x481),
    DN(Gs7,11,0x481),
    DN(E_7,12,0x481),
    DN(E_7,13,0x481),
    DN(B_6,14,0x481),
    DN(B_6,13,0x481),
    DN(E_7,12,0x481),
    DN(E_7,11,0x481),
    DN(A_7,10,0x481),
    DN(A_7,9,0x481),
    DN(E_7,8,0x481),
    DN(E_7,7,0x481),
    DN(C_7,6,0x481),
    DN(C_7,5,0x481),
    DN(E_7,4,0x481),
    DN(E_7,3,0x481),
    DN(A_7,2,0x481),
    DN(A_7,3,0x481),
    DN(E_7,4,0x481),
    DN(E_7,5,0x481),
    DN(C_7,6,0x481),
    DN(C_7,7,0x481),
    DN(E_7,8,0x481),
    DN(E_7,9,0x481),
    DN(As7,10,0x481),
    DN(As7,11,0x481),
    DN(E_7,12,0x481),
    DN(E_7,13,0x481),
    DN(Cs7,14,0x481),
    DN(Cs7,13,0x481),
    DN(E_7,12,0x481),
    DN(E_7,11,0x481),
    DN(As7,10,0x481),
    DN(As7,9,0x481),
    DN(E_7,8,0x481),
    DN(E_7,7,0x481),
    DN(Cs7,6,0x481),
    DN(Cs7,5,0x481),
    DN(E_7,4,0x481),
    DN(E_7,3,0x481),
};
static const unsigned char P24[] = {
    DN(B_7,2,0x481),
    DN(B_7,3,0x481),
    DN(E_7,4,0x481),
    DN(E_7,5,0x481),
    DN(B_6,6,0x481),
    DN(B_6,7,0x481),
    DN(A_7,8,0x481),
    DN(A_7,9,0x481),
    DN(Ds7,10,0x481),
    DN(Ds7,11,0x481),
    DN(A_6,12,0x481),
    DN(A_6,13,0x481),
    DN(G_7,14,0x481),
    DN(G_7,13,0x481),
    DN(G_7,12,0x481),
    DN(G_7,11,0x481),
    DN(G_7,10,0x481),
    DN(G_7,9,0x481),
    DN(G_7,8,0x481),
    DN(G_7,7,0x481),
    DN(G_7,6,0x481),
    DN(G_7,5,0x481),
    DN(G_7,4,0x481),
    DN(G_7,3,0x481),
    DN(Fs7,2,0x481),
    DN(___,3,0x481),
    DN(___,0,0xE01),
    DN(___,0,0x000),
    DN(E_7,6,0x481),
    DN(___,7,0x481),
    DN(___,0,0xE01),
    DN(___,0,0x000),
    DN(Cs7,10,0x481),
    DN(Ds7,11,0x481),
    DN(Ds7,12,0x481),
    DN(Ds7,13,0x481),
    DN(Ds7,14,0x481),
    DN(Ds7,13,0x481),
    DN(Ds7,12,0x481),
    DN(Ds7,11,0x481),
    DN(Ds7,10,0x481),
    DN(Ds7,9,0x481),
    DN(Ds7,8,0x481),
    DN(Ds7,7,0x481),
    DN(B_6,6,0x481),
    DN(B_6,5,0x481),
    DN(B_6,4,0x481),
    DN(B_6,3,0x481),
    DN(B_6,2,0x481),
    DN(B_6,3,0x481),
    DN(B_6,4,0x481),
    DN(B_6,5,0x481),
    DN(B_6,6,0x481),
    DN(B_6,7,0x481),
    DN(B_6,8,0x481),
    DN(B_6,9,0x481),
    DN(Cs7,10,0x481),
    DN(Cs7,11,0x481),
    DN(Cs7,12,0x481),
    DN(Cs7,13,0x481),
    DN(Cs7,14,0x481),
    DN(Cs7,13,0x481),
    DN(Cs7,12,0x481),
    DN(Cs7,11,0x481),
};

static const unsigned char* const order1[] = {P0,P0,P0,P0,P0,P0,P0,P0,P0,P0,P0,P0,P0,P0,P0,P0,P0};
static const unsigned char* const order2[] = {P1,P2,P1,P2,P1,P3,P1,P4,P5,P6,P7,P6,P8,P6,P7,P6,P8};
static const unsigned char* const order3[] = {P9,P10,P11,P12,P13,P14,P15,P16,P17,P18,P19,P18,P20,P21,P22,P23,P24};
static const unsigned char* const order4[] = {P25,P25,P25,P25,P25,P26,P25,P26,P27,P28,P29,P28,P30,P28,P29,P28,P30};

static const hUGEDutyInstr_t duty_instruments[] = {
    {8,128,240,0,128},
    {8,0,192,0,128},
};
static const hUGEWaveInstr_t wave_instruments[] = {
    {0,32,13,0,128},
    {0,32,0,0,128},
    {0,32,1,0,128},
    {0,32,2,0,128},
    {0,32,3,0,128},
    {0,32,4,0,128},
    {0,32,5,0,128},
    {0,32,6,0,128},
    {0,32,7,0,128},
    {0,32,8,0,128},
    {0,32,9,0,128},
    {0,32,10,0,128},
    {0,32,11,0,128},
    {0,32,12,0,128},
};
static const hUGENoiseInstr_t noise_instruments[] = {
    {113,0,0,0,0},
    {241,0,0,0,0},
    {242,0,0,0,0},
    {114,0,0,0,0},
};

static const unsigned char waves[] = {
    0,0,0,0,0,0,0,0,255,255,255,255,255,255,255,255,
    0,0,0,0,0,0,0,0,15,255,255,255,255,255,255,255,
    0,0,0,0,0,0,0,0,0,255,255,255,255,255,255,255,
    0,0,0,0,0,0,0,0,0,15,255,255,255,255,255,255,
    0,0,0,0,0,0,0,0,0,0,255,255,255,255,255,255,
    0,0,0,0,0,0,0,0,0,0,15,255,255,255,255,255,
    0,0,0,0,0,0,0,0,0,0,0,255,255,255,255,255,
    0,0,0,0,0,0,0,0,0,0,0,15,255,255,255,255,
    0,0,0,0,0,0,0,0,0,0,0,0,255,255,255,255,
    0,0,0,0,0,0,0,0,0,0,0,0,15,255,255,255,
    0,0,0,0,0,0,0,0,0,0,0,0,0,255,255,255,
    0,0,0,0,0,0,0,0,0,0,0,0,0,15,255,255,
    0,0,0,0,0,0,0,0,0,0,0,0,0,0,255,255,
    0,17,34,51,68,85,102,119,136,153,170,187,204,221,238,255,
};

BANKREF(MUS_FACTORY)
const hUGESong_t MUS_FACTORY = {3, &order_cnt, order1, order2, order3,order4, duty_instruments, wave_instruments, noise_instruments, NULL, waves};
