#pragma bank 255

#include <gbdk/platform.h>
#include "hUGEDriver.h"
#include <stddef.h>

static const unsigned char order_cnt = 40;

static const unsigned char P0[] = {
    DN(___,0,0x000),
    DN(___,0,0x000),
    DN(___,0,0x000),
    DN(___,0,0x000),
    DN(___,0,0x000),
    DN(___,0,0x000),
    DN(___,0,0x000),
    DN(___,0,0x000),
    DN(___,0,0x000),
    DN(___,0,0x000),
    DN(___,0,0x000),
    DN(___,0,0x000),
    DN(___,0,0x000),
    DN(___,0,0x000),
    DN(___,0,0x000),
    DN(___,0,0x000),
    DN(___,0,0x000),
    DN(___,0,0x000),
    DN(___,0,0x000),
    DN(___,0,0x000),
    DN(___,0,0x000),
    DN(___,0,0x000),
    DN(___,0,0x000),
    DN(___,0,0x000),
    DN(___,0,0x000),
    DN(___,0,0x000),
    DN(___,0,0x000),
    DN(___,0,0x000),
    DN(___,0,0x000),
    DN(___,0,0x000),
    DN(___,0,0x000),
    DN(___,0,0x000),
    DN(___,0,0x000),
    DN(___,0,0x000),
    DN(___,0,0x000),
    DN(___,0,0x000),
    DN(___,0,0x000),
    DN(___,0,0x000),
    DN(___,0,0x000),
    DN(___,0,0x000),
    DN(___,0,0x000),
    DN(___,0,0x000),
    DN(___,0,0x000),
    DN(___,0,0x000),
    DN(___,0,0x000),
    DN(___,0,0x000),
    DN(___,0,0x000),
    DN(___,0,0x000),
    DN(___,0,0x000),
    DN(___,0,0x000),
    DN(___,0,0x000),
    DN(___,0,0x000),
    DN(___,0,0x000),
    DN(___,0,0x000),
    DN(___,0,0x000),
    DN(___,0,0x000),
    DN(___,0,0x000),
    DN(___,0,0x000),
    DN(___,0,0x000),
    DN(___,0,0x000),
    DN(___,0,0x000),
    DN(___,0,0x000),
    DN(___,0,0x000),
    DN(___,0,0x000),
};
static const unsigned char P1[] = {
    DN(Fs3,1,0xC08),
    DN(Fs3,1,0xC09),
    DN(Fs3,1,0xC0A),
    DN(Fs3,1,0xC0B),
    DN(Fs3,1,0xC0C),
    DN(___,0,0x000),
    DN(___,0,0x000),
    DN(___,0,0x000),
    DN(___,0,0x000),
    DN(___,0,0x000),
    DN(___,0,0x000),
    DN(___,0,0x000),
    DN(___,0,0x000),
    DN(___,0,0x000),
    DN(___,0,0x000),
    DN(___,0,0x000),
    DN(___,0,0x000),
    DN(___,0,0x000),
    DN(___,0,0x000),
    DN(___,0,0x000),
    DN(___,0,0x000),
    DN(___,0,0x000),
    DN(___,0,0x000),
    DN(___,0,0x000),
    DN(___,0,0x000),
    DN(___,0,0x000),
    DN(___,0,0x000),
    DN(___,0,0x000),
    DN(___,0,0x000),
    DN(___,0,0x000),
    DN(___,0,0x000),
    DN(___,0,0x000),
    DN(___,0,0x000),
    DN(___,0,0x000),
    DN(___,0,0x000),
    DN(___,0,0x000),
    DN(___,0,0x000),
    DN(___,0,0x000),
    DN(___,0,0x000),
    DN(___,0,0x000),
    DN(___,0,0x000),
    DN(___,0,0x000),
    DN(___,0,0x000),
    DN(___,0,0x000),
    DN(___,0,0x000),
    DN(___,0,0x000),
    DN(___,0,0x000),
    DN(___,0,0x000),
    DN(___,0,0x000),
    DN(___,0,0x000),
    DN(___,0,0x000),
    DN(___,0,0x000),
    DN(___,0,0x000),
    DN(___,0,0x000),
    DN(___,0,0x000),
    DN(___,0,0x000),
    DN(___,0,0x000),
    DN(___,0,0x000),
    DN(___,0,0x000),
    DN(___,0,0x000),
    DN(___,0,0x000),
    DN(___,0,0x000),
    DN(___,0,0x000),
    DN(___,0,0x000),
};
static const unsigned char P5[] = {
    DN(___,0,0xE01),
    DN(___,0,0x000),
    DN(___,0,0x000),
    DN(___,0,0x000),
    DN(___,0,0x000),
    DN(___,0,0x000),
    DN(___,0,0x000),
    DN(___,0,0x000),
    DN(___,0,0x000),
    DN(___,0,0x000),
    DN(___,0,0x000),
    DN(___,0,0x000),
    DN(___,0,0x000),
    DN(___,0,0x000),
    DN(___,0,0x000),
    DN(___,0,0x000),
    DN(___,0,0x000),
    DN(___,0,0x000),
    DN(___,0,0x000),
    DN(___,0,0x000),
    DN(___,0,0x000),
    DN(___,0,0x000),
    DN(___,0,0x000),
    DN(___,0,0x000),
    DN(___,0,0x000),
    DN(___,0,0x000),
    DN(___,0,0x000),
    DN(___,0,0x000),
    DN(___,0,0x000),
    DN(___,0,0x000),
    DN(___,0,0x000),
    DN(___,0,0x000),
    DN(___,0,0x000),
    DN(___,0,0x000),
    DN(___,0,0x000),
    DN(___,0,0x000),
    DN(___,0,0x000),
    DN(___,0,0x000),
    DN(___,0,0x000),
    DN(___,0,0x000),
    DN(___,0,0x000),
    DN(___,0,0x000),
    DN(___,0,0x000),
    DN(___,0,0x000),
    DN(___,0,0x000),
    DN(___,0,0x000),
    DN(___,0,0x000),
    DN(___,0,0x000),
    DN(___,0,0x000),
    DN(___,0,0x000),
    DN(___,0,0x000),
    DN(___,0,0x000),
    DN(___,0,0x000),
    DN(___,0,0x000),
    DN(___,0,0x000),
    DN(___,0,0x000),
    DN(___,0,0x000),
    DN(___,0,0x000),
    DN(___,0,0x000),
    DN(___,0,0x000),
    DN(___,0,0x000),
    DN(___,0,0x000),
    DN(___,0,0x000),
    DN(___,0,0x000),
};
static const unsigned char P14[] = {
    DN(C_8,1,0x000),
    DN(___,0,0x000),
    DN(___,0,0x000),
    DN(___,0,0x000),
    DN(___,0,0x000),
    DN(___,0,0x000),
    DN(___,0,0x000),
    DN(___,0,0x000),
    DN(___,0,0x000),
    DN(___,0,0x000),
    DN(___,0,0x000),
    DN(___,0,0x000),
    DN(___,0,0x000),
    DN(___,0,0x000),
    DN(___,0,0x000),
    DN(___,0,0x000),
    DN(___,0,0x000),
    DN(___,0,0x000),
    DN(___,0,0x000),
    DN(___,0,0x000),
    DN(___,0,0x000),
    DN(___,0,0x000),
    DN(___,0,0x000),
    DN(___,0,0x000),
    DN(___,0,0x000),
    DN(___,0,0x000),
    DN(___,0,0x000),
    DN(___,0,0x000),
    DN(___,0,0x000),
    DN(___,0,0x000),
    DN(___,0,0x000),
    DN(___,0,0x000),
    DN(C_8,1,0x000),
    DN(___,0,0x000),
    DN(___,0,0x000),
    DN(___,0,0x000),
    DN(___,0,0x000),
    DN(___,0,0x000),
    DN(___,0,0x000),
    DN(___,0,0x000),
    DN(___,0,0x000),
    DN(___,0,0x000),
    DN(___,0,0x000),
    DN(___,0,0x000),
    DN(___,0,0x000),
    DN(___,0,0x000),
    DN(___,0,0x000),
    DN(___,0,0x000),
    DN(___,0,0x000),
    DN(___,0,0x000),
    DN(___,0,0x000),
    DN(___,0,0x000),
    DN(___,0,0x000),
    DN(___,0,0x000),
    DN(___,0,0x000),
    DN(___,0,0x000),
    DN(___,0,0x000),
    DN(___,0,0x000),
    DN(___,0,0x000),
    DN(___,0,0x000),
    DN(___,0,0x000),
    DN(___,0,0x000),
    DN(___,0,0x000),
    DN(___,0,0x000),
};
static const unsigned char P2[] = {
    DN(F_3,1,0xC08),
    DN(F_3,1,0xC09),
    DN(F_3,1,0xC0A),
    DN(F_3,1,0xC0B),
    DN(F_3,1,0xC0C),
    DN(___,0,0x000),
    DN(___,0,0x000),
    DN(___,0,0x000),
    DN(___,0,0x000),
    DN(___,0,0x000),
    DN(___,0,0x000),
    DN(___,0,0x000),
    DN(___,0,0x000),
    DN(___,0,0x000),
    DN(___,0,0x000),
    DN(___,0,0x000),
    DN(___,0,0x000),
    DN(___,0,0x000),
    DN(___,0,0x000),
    DN(___,0,0x000),
    DN(___,0,0x000),
    DN(___,0,0x000),
    DN(___,0,0x000),
    DN(___,0,0x000),
    DN(___,0,0x000),
    DN(___,0,0x000),
    DN(___,0,0x000),
    DN(___,0,0x000),
    DN(___,0,0x000),
    DN(___,0,0x000),
    DN(___,0,0x000),
    DN(___,0,0x000),
    DN(___,0,0x000),
    DN(___,0,0x000),
    DN(___,0,0x000),
    DN(___,0,0x000),
    DN(___,0,0x000),
    DN(___,0,0x000),
    DN(___,0,0x000),
    DN(___,0,0x000),
    DN(___,0,0x000),
    DN(___,0,0x000),
    DN(___,0,0x000),
    DN(___,0,0x000),
    DN(___,0,0x000),
    DN(___,0,0x000),
    DN(___,0,0x000),
    DN(___,0,0x000),
    DN(___,0,0x000),
    DN(___,0,0x000),
    DN(___,0,0x000),
    DN(___,0,0x000),
    DN(___,0,0x000),
    DN(___,0,0x000),
    DN(___,0,0x000),
    DN(___,0,0x000),
    DN(___,0,0x000),
    DN(___,0,0x000),
    DN(___,0,0x000),
    DN(___,0,0x000),
    DN(___,0,0x000),
    DN(___,0,0x000),
    DN(___,0,0x000),
    DN(___,0,0x000),
};
static const unsigned char P3[] = {
    DN(Ds3,1,0xC08),
    DN(Ds3,1,0xC09),
    DN(Ds3,1,0xC0A),
    DN(Ds3,1,0xC0B),
    DN(Ds3,1,0xC0C),
    DN(___,0,0x000),
    DN(___,0,0x000),
    DN(___,0,0x000),
    DN(___,0,0x000),
    DN(___,0,0x000),
    DN(___,0,0x000),
    DN(___,0,0x000),
    DN(___,0,0x000),
    DN(___,0,0x000),
    DN(___,0,0x000),
    DN(___,0,0x000),
    DN(___,0,0x000),
    DN(___,0,0x000),
    DN(___,0,0x000),
    DN(___,0,0x000),
    DN(___,0,0x000),
    DN(___,0,0x000),
    DN(___,0,0x000),
    DN(___,0,0x000),
    DN(___,0,0x000),
    DN(___,0,0x000),
    DN(___,0,0x000),
    DN(___,0,0x000),
    DN(___,0,0x000),
    DN(___,0,0x000),
    DN(___,0,0x000),
    DN(___,0,0x000),
    DN(___,0,0x000),
    DN(___,0,0x000),
    DN(___,0,0x000),
    DN(___,0,0x000),
    DN(___,0,0x000),
    DN(___,0,0x000),
    DN(___,0,0x000),
    DN(___,0,0x000),
    DN(___,0,0x000),
    DN(___,0,0x000),
    DN(___,0,0x000),
    DN(___,0,0x000),
    DN(___,0,0x000),
    DN(___,0,0x000),
    DN(___,0,0x000),
    DN(___,0,0x000),
    DN(___,0,0x000),
    DN(___,0,0x000),
    DN(___,0,0x000),
    DN(___,0,0x000),
    DN(___,0,0x000),
    DN(___,0,0x000),
    DN(___,0,0x000),
    DN(___,0,0x000),
    DN(___,0,0x000),
    DN(___,0,0x000),
    DN(___,0,0x000),
    DN(___,0,0x000),
    DN(___,0,0x000),
    DN(___,0,0x000),
    DN(___,0,0x000),
    DN(___,0,0x000),
};
static const unsigned char P4[] = {
    DN(D_3,1,0xC08),
    DN(D_3,1,0xC09),
    DN(D_3,1,0xC0A),
    DN(D_3,1,0xC0B),
    DN(D_3,1,0xC0C),
    DN(___,0,0x000),
    DN(___,0,0x000),
    DN(___,0,0x000),
    DN(___,0,0x000),
    DN(___,0,0x000),
    DN(___,0,0x000),
    DN(___,0,0x000),
    DN(___,0,0x000),
    DN(___,0,0x000),
    DN(___,0,0x000),
    DN(___,0,0x000),
    DN(___,0,0x000),
    DN(___,0,0x000),
    DN(___,0,0x000),
    DN(___,0,0x000),
    DN(___,0,0x000),
    DN(___,0,0x000),
    DN(___,0,0x000),
    DN(___,0,0x000),
    DN(___,0,0x000),
    DN(___,0,0x000),
    DN(___,0,0x000),
    DN(___,0,0x000),
    DN(___,0,0x000),
    DN(___,0,0x000),
    DN(___,0,0x000),
    DN(___,0,0x000),
    DN(Cs3,1,0xC08),
    DN(Cs3,1,0xC09),
    DN(Cs3,1,0xC0A),
    DN(Cs3,1,0xC0B),
    DN(Cs3,1,0xC0C),
    DN(___,0,0x000),
    DN(___,0,0x000),
    DN(___,0,0x000),
    DN(___,0,0x000),
    DN(___,0,0x000),
    DN(___,0,0x000),
    DN(___,0,0x000),
    DN(___,0,0x000),
    DN(___,0,0x000),
    DN(___,0,0x000),
    DN(___,0,0x000),
    DN(___,0,0x000),
    DN(___,0,0x000),
    DN(___,0,0x000),
    DN(___,0,0x000),
    DN(___,0,0x000),
    DN(___,0,0x000),
    DN(___,0,0x000),
    DN(___,0,0x000),
    DN(___,0,0x000),
    DN(___,0,0x000),
    DN(___,0,0x000),
    DN(___,0,0x000),
    DN(___,0,0x000),
    DN(___,0,0x000),
    DN(___,0,0x000),
    DN(___,0,0x000),
};
static const unsigned char P6[] = {
    DN(___,0,0xE01),
    DN(___,0,0x000),
    DN(___,0,0x000),
    DN(___,0,0x000),
    DN(___,0,0x000),
    DN(___,0,0x000),
    DN(___,0,0x000),
    DN(___,0,0x000),
    DN(___,0,0x000),
    DN(___,0,0x000),
    DN(___,0,0x000),
    DN(___,0,0x000),
    DN(___,0,0x000),
    DN(___,0,0x000),
    DN(___,0,0x000),
    DN(___,0,0x000),
    DN(As8,1,0x481),
    DN(___,0,0x481),
    DN(___,0,0x481),
    DN(___,0,0x481),
    DN(___,0,0x481),
    DN(___,0,0x481),
    DN(___,0,0x481),
    DN(___,0,0x481),
    DN(___,0,0x481),
    DN(___,0,0x481),
    DN(___,0,0x481),
    DN(___,0,0x481),
    DN(___,0,0x481),
    DN(___,0,0x481),
    DN(___,0,0x481),
    DN(___,0,0x481),
    DN(Gs8,1,0x481),
    DN(___,0,0x481),
    DN(___,0,0x481),
    DN(___,0,0x481),
    DN(___,0,0x481),
    DN(___,0,0x481),
    DN(___,0,0x481),
    DN(___,0,0x481),
    DN(___,0,0x481),
    DN(___,0,0x481),
    DN(___,0,0x481),
    DN(___,0,0x481),
    DN(___,0,0x481),
    DN(___,0,0x481),
    DN(___,0,0x481),
    DN(___,0,0x481),
    DN(As8,1,0x481),
    DN(___,0,0x481),
    DN(___,0,0x481),
    DN(___,0,0x481),
    DN(___,0,0x481),
    DN(___,0,0x481),
    DN(___,0,0x481),
    DN(___,0,0x481),
    DN(___,0,0x481),
    DN(___,0,0x481),
    DN(___,0,0x481),
    DN(___,0,0x481),
    DN(___,0,0x481),
    DN(___,0,0x481),
    DN(___,0,0x481),
    DN(___,0,0x481),
};
static const unsigned char P7[] = {
    DN(Fs8,1,0x481),
    DN(___,0,0x481),
    DN(___,0,0x481),
    DN(___,0,0x481),
    DN(___,0,0x481),
    DN(___,0,0x481),
    DN(___,0,0x481),
    DN(___,0,0x481),
    DN(___,0,0x481),
    DN(___,0,0x481),
    DN(___,0,0x481),
    DN(___,0,0x481),
    DN(___,0,0x481),
    DN(___,0,0x481),
    DN(___,0,0x481),
    DN(___,0,0x481),
    DN(As8,1,0x481),
    DN(___,0,0x481),
    DN(___,0,0x481),
    DN(___,0,0x481),
    DN(___,0,0x481),
    DN(___,0,0x481),
    DN(___,0,0x481),
    DN(___,0,0x481),
    DN(___,0,0x481),
    DN(___,0,0x481),
    DN(___,0,0x481),
    DN(___,0,0x481),
    DN(___,0,0x481),
    DN(___,0,0x481),
    DN(___,0,0x481),
    DN(___,0,0x481),
    DN(Gs8,1,0x481),
    DN(___,0,0x481),
    DN(___,0,0x481),
    DN(___,0,0x481),
    DN(___,0,0x481),
    DN(___,0,0x481),
    DN(___,0,0x481),
    DN(___,0,0x481),
    DN(___,0,0x481),
    DN(___,0,0x481),
    DN(___,0,0x481),
    DN(___,0,0x481),
    DN(___,0,0x481),
    DN(___,0,0x481),
    DN(___,0,0x481),
    DN(___,0,0x481),
    DN(F_8,1,0x481),
    DN(___,0,0x481),
    DN(___,0,0x481),
    DN(___,0,0x481),
    DN(___,0,0x481),
    DN(___,0,0x481),
    DN(___,0,0x481),
    DN(___,0,0x481),
    DN(___,0,0x481),
    DN(___,0,0x481),
    DN(___,0,0x481),
    DN(___,0,0x481),
    DN(___,0,0x481),
    DN(___,0,0x481),
    DN(___,0,0x481),
    DN(___,0,0x481),
};
static const unsigned char P8[] = {
    DN(Fs8,1,0x481),
    DN(___,0,0x481),
    DN(___,0,0x481),
    DN(___,0,0x481),
    DN(___,0,0x481),
    DN(___,0,0x481),
    DN(___,0,0x481),
    DN(___,0,0x481),
    DN(___,0,0x481),
    DN(___,0,0x481),
    DN(___,0,0x481),
    DN(___,0,0x481),
    DN(___,0,0x481),
    DN(___,0,0x481),
    DN(___,0,0x481),
    DN(___,0,0x481),
    DN(As8,1,0x481),
    DN(___,0,0x481),
    DN(___,0,0x481),
    DN(___,0,0x481),
    DN(___,0,0x481),
    DN(___,0,0x481),
    DN(___,0,0x481),
    DN(___,0,0x481),
    DN(___,0,0x481),
    DN(___,0,0x481),
    DN(___,0,0x481),
    DN(___,0,0x481),
    DN(___,0,0x481),
    DN(___,0,0x481),
    DN(___,0,0x481),
    DN(___,0,0x481),
    DN(Gs8,1,0x481),
    DN(___,0,0x481),
    DN(___,0,0x481),
    DN(___,0,0x481),
    DN(___,0,0x481),
    DN(___,0,0x481),
    DN(___,0,0x481),
    DN(___,0,0x481),
    DN(___,0,0x481),
    DN(___,0,0x481),
    DN(___,0,0x481),
    DN(___,0,0x481),
    DN(___,0,0x481),
    DN(___,0,0x481),
    DN(___,0,0x481),
    DN(___,0,0x481),
    DN(As8,1,0x481),
    DN(___,0,0x481),
    DN(___,0,0x481),
    DN(___,0,0x481),
    DN(___,0,0x481),
    DN(___,0,0x481),
    DN(___,0,0x481),
    DN(___,0,0x481),
    DN(___,0,0x481),
    DN(___,0,0x481),
    DN(___,0,0x481),
    DN(___,0,0x481),
    DN(___,0,0x481),
    DN(___,0,0x481),
    DN(___,0,0x481),
    DN(___,0,0x481),
};
static const unsigned char P9[] = {
    DN(B_8,1,0x481),
    DN(___,0,0x481),
    DN(___,0,0x481),
    DN(___,0,0x481),
    DN(___,0,0x481),
    DN(___,0,0x481),
    DN(___,0,0x481),
    DN(___,0,0x481),
    DN(___,0,0x481),
    DN(___,0,0x481),
    DN(___,0,0x481),
    DN(___,0,0x481),
    DN(___,0,0x481),
    DN(___,0,0x481),
    DN(___,0,0x481),
    DN(___,0,0x481),
    DN(As8,1,0x481),
    DN(___,0,0x481),
    DN(___,0,0x481),
    DN(___,0,0x481),
    DN(___,0,0x481),
    DN(___,0,0x481),
    DN(___,0,0x481),
    DN(___,0,0x481),
    DN(___,0,0x481),
    DN(___,0,0x481),
    DN(___,0,0x481),
    DN(___,0,0x481),
    DN(___,0,0x481),
    DN(___,0,0x481),
    DN(___,0,0x481),
    DN(___,0,0x481),
    DN(Gs8,1,0x481),
    DN(___,0,0x481),
    DN(___,0,0x481),
    DN(___,0,0x481),
    DN(___,0,0x481),
    DN(___,0,0x481),
    DN(___,0,0x481),
    DN(___,0,0x481),
    DN(___,0,0x481),
    DN(___,0,0x481),
    DN(___,0,0x481),
    DN(___,0,0x481),
    DN(___,0,0x481),
    DN(___,0,0x481),
    DN(___,0,0x481),
    DN(___,0,0x481),
    DN(F_8,1,0x481),
    DN(___,0,0x481),
    DN(___,0,0x481),
    DN(___,0,0x481),
    DN(___,0,0x481),
    DN(___,0,0x481),
    DN(___,0,0x481),
    DN(___,0,0x481),
    DN(___,0,0x481),
    DN(___,0,0x481),
    DN(___,0,0x481),
    DN(___,0,0x481),
    DN(___,0,0x481),
    DN(___,0,0x481),
    DN(___,0,0x481),
    DN(___,0,0x481),
};
static const unsigned char P10[] = {
    DN(___,0,0xE01),
    DN(___,0,0x000),
    DN(___,0,0x000),
    DN(___,0,0x000),
    DN(___,0,0x000),
    DN(___,0,0x000),
    DN(___,0,0x000),
    DN(___,0,0x000),
    DN(___,0,0x000),
    DN(___,0,0x000),
    DN(___,0,0x000),
    DN(___,0,0x000),
    DN(___,0,0x000),
    DN(___,0,0x000),
    DN(___,0,0x000),
    DN(___,0,0x000),
    DN(Cs8,1,0x059),
    DN(Cs8,1,0x059),
    DN(Cs8,1,0x059),
    DN(Cs8,1,0x059),
    DN(Cs8,1,0x059),
    DN(Cs8,1,0x059),
    DN(Cs8,1,0x059),
    DN(Cs8,1,0x059),
    DN(Cs8,1,0x059),
    DN(Cs8,1,0x059),
    DN(Cs8,1,0x059),
    DN(Cs8,1,0x059),
    DN(Cs8,1,0x059),
    DN(Cs8,1,0x059),
    DN(Cs8,1,0x059),
    DN(Cs8,1,0x059),
    DN(Cs8,1,0x047),
    DN(Cs8,1,0x047),
    DN(Cs8,1,0x047),
    DN(Cs8,1,0x047),
    DN(Cs8,1,0x047),
    DN(Cs8,1,0x047),
    DN(Cs8,1,0x047),
    DN(Cs8,1,0x047),
    DN(Cs8,1,0x047),
    DN(Cs8,1,0x047),
    DN(Cs8,1,0x047),
    DN(Cs8,1,0x047),
    DN(Cs8,1,0x047),
    DN(Cs8,1,0x047),
    DN(Cs8,1,0x047),
    DN(Cs8,1,0x047),
    DN(Cs8,1,0x059),
    DN(Cs8,1,0x059),
    DN(Cs8,1,0x059),
    DN(Cs8,1,0x059),
    DN(Cs8,1,0x059),
    DN(Cs8,1,0x059),
    DN(Cs8,1,0x059),
    DN(Cs8,1,0x059),
    DN(Cs8,1,0x059),
    DN(Cs8,1,0x059),
    DN(Cs8,1,0x059),
    DN(Cs8,1,0x059),
    DN(Cs8,1,0x059),
    DN(Cs8,1,0x059),
    DN(Cs8,1,0x059),
    DN(Cs8,1,0x059),
};
static const unsigned char P11[] = {
    DN(B_7,1,0x047),
    DN(B_7,1,0x047),
    DN(B_7,1,0x047),
    DN(B_7,1,0x047),
    DN(B_7,1,0x047),
    DN(B_7,1,0x047),
    DN(B_7,1,0x047),
    DN(B_7,1,0x047),
    DN(B_7,1,0x047),
    DN(B_7,1,0x047),
    DN(B_7,1,0x047),
    DN(B_7,1,0x047),
    DN(B_7,1,0x047),
    DN(B_7,1,0x047),
    DN(B_7,1,0x047),
    DN(B_7,1,0x047),
    DN(B_7,1,0x07B),
    DN(B_7,1,0x07B),
    DN(B_7,1,0x07B),
    DN(B_7,1,0x07B),
    DN(B_7,1,0x07B),
    DN(B_7,1,0x07B),
    DN(B_7,1,0x07B),
    DN(B_7,1,0x07B),
    DN(B_7,1,0x07B),
    DN(B_7,1,0x07B),
    DN(B_7,1,0x07B),
    DN(B_7,1,0x07B),
    DN(B_7,1,0x07B),
    DN(B_7,1,0x07B),
    DN(B_7,1,0x07B),
    DN(B_7,1,0x07B),
    DN(B_7,1,0x069),
    DN(B_7,1,0x069),
    DN(B_7,1,0x069),
    DN(B_7,1,0x069),
    DN(B_7,1,0x069),
    DN(B_7,1,0x069),
    DN(B_7,1,0x069),
    DN(B_7,1,0x069),
    DN(B_7,1,0x069),
    DN(B_7,1,0x069),
    DN(B_7,1,0x069),
    DN(B_7,1,0x069),
    DN(B_7,1,0x069),
    DN(B_7,1,0x069),
    DN(B_7,1,0x069),
    DN(B_7,1,0x069),
    DN(B_7,1,0x036),
    DN(B_7,1,0x036),
    DN(B_7,1,0x036),
    DN(B_7,1,0x036),
    DN(B_7,1,0x036),
    DN(B_7,1,0x036),
    DN(B_7,1,0x036),
    DN(B_7,1,0x036),
    DN(B_7,1,0x036),
    DN(B_7,1,0x036),
    DN(B_7,1,0x036),
    DN(B_7,1,0x036),
    DN(B_7,1,0x036),
    DN(B_7,1,0x036),
    DN(B_7,1,0x036),
    DN(B_7,1,0x036),
};
static const unsigned char P12[] = {
    DN(Cs8,1,0x025),
    DN(Cs8,1,0x025),
    DN(Cs8,1,0x025),
    DN(Cs8,1,0x025),
    DN(Cs8,1,0x025),
    DN(Cs8,1,0x025),
    DN(Cs8,1,0x025),
    DN(Cs8,1,0x025),
    DN(Cs8,1,0x025),
    DN(Cs8,1,0x025),
    DN(Cs8,1,0x025),
    DN(Cs8,1,0x025),
    DN(Cs8,1,0x025),
    DN(Cs8,1,0x025),
    DN(Cs8,1,0x025),
    DN(Cs8,1,0x025),
    DN(Cs8,1,0x059),
    DN(Cs8,1,0x059),
    DN(Cs8,1,0x059),
    DN(Cs8,1,0x059),
    DN(Cs8,1,0x059),
    DN(Cs8,1,0x059),
    DN(Cs8,1,0x059),
    DN(Cs8,1,0x059),
    DN(Cs8,1,0x059),
    DN(Cs8,1,0x059),
    DN(Cs8,1,0x059),
    DN(Cs8,1,0x059),
    DN(Cs8,1,0x059),
    DN(Cs8,1,0x059),
    DN(Cs8,1,0x059),
    DN(Cs8,1,0x059),
    DN(Cs8,1,0x047),
    DN(Cs8,1,0x047),
    DN(Cs8,1,0x047),
    DN(Cs8,1,0x047),
    DN(Cs8,1,0x047),
    DN(Cs8,1,0x047),
    DN(Cs8,1,0x047),
    DN(Cs8,1,0x047),
    DN(Cs8,1,0x047),
    DN(Cs8,1,0x047),
    DN(Cs8,1,0x047),
    DN(Cs8,1,0x047),
    DN(Cs8,1,0x047),
    DN(Cs8,1,0x047),
    DN(Cs8,1,0x047),
    DN(Cs8,1,0x047),
    DN(Cs8,1,0x059),
    DN(Cs8,1,0x059),
    DN(Cs8,1,0x059),
    DN(Cs8,1,0x059),
    DN(Cs8,1,0x059),
    DN(Cs8,1,0x059),
    DN(Cs8,1,0x059),
    DN(Cs8,1,0x059),
    DN(Cs8,1,0x059),
    DN(Cs8,1,0x059),
    DN(Cs8,1,0x059),
    DN(Cs8,1,0x059),
    DN(Cs8,1,0x059),
    DN(Cs8,1,0x059),
    DN(Cs8,1,0x059),
    DN(Cs8,1,0x059),
};
static const unsigned char P13[] = {
    DN(D_8,1,0x049),
    DN(D_8,1,0x049),
    DN(D_8,1,0x049),
    DN(D_8,1,0x049),
    DN(D_8,1,0x049),
    DN(D_8,1,0x049),
    DN(D_8,1,0x049),
    DN(D_8,1,0x049),
    DN(D_8,1,0x049),
    DN(D_8,1,0x049),
    DN(D_8,1,0x049),
    DN(D_8,1,0x049),
    DN(D_8,1,0x049),
    DN(D_8,1,0x049),
    DN(D_8,1,0x049),
    DN(D_8,1,0x049),
    DN(E_8,1,0x026),
    DN(E_8,1,0x026),
    DN(E_8,1,0x026),
    DN(E_8,1,0x026),
    DN(E_8,1,0x026),
    DN(E_8,1,0x026),
    DN(E_8,1,0x026),
    DN(E_8,1,0x026),
    DN(E_8,1,0x026),
    DN(E_8,1,0x026),
    DN(E_8,1,0x026),
    DN(E_8,1,0x026),
    DN(E_8,1,0x026),
    DN(E_8,1,0x026),
    DN(E_8,1,0x026),
    DN(E_8,1,0x026),
    DN(Cs8,1,0x047),
    DN(Cs8,1,0x047),
    DN(Cs8,1,0x047),
    DN(Cs8,1,0x047),
    DN(Cs8,1,0x047),
    DN(Cs8,1,0x047),
    DN(Cs8,1,0x047),
    DN(Cs8,1,0x047),
    DN(Cs8,1,0x047),
    DN(Cs8,1,0x047),
    DN(Cs8,1,0x047),
    DN(Cs8,1,0x047),
    DN(Cs8,1,0x047),
    DN(Cs8,1,0x047),
    DN(Cs8,1,0x047),
    DN(Cs8,1,0x047),
    DN(B_7,1,0x026),
    DN(B_7,1,0x026),
    DN(B_7,1,0x026),
    DN(B_7,1,0x026),
    DN(B_7,1,0x026),
    DN(B_7,1,0x026),
    DN(B_7,1,0x026),
    DN(B_7,1,0x026),
    DN(B_7,1,0x026),
    DN(B_7,1,0x026),
    DN(B_7,1,0x026),
    DN(B_7,1,0x026),
    DN(B_7,1,0x026),
    DN(B_7,1,0x026),
    DN(B_7,1,0x026),
    DN(B_7,1,0x026),
};

static const unsigned char* const order1[] = {P0,P0,P0,P0,P0,P0,P0,P0,P0,P0,P0,P0,P0,P0,P0,P0,P0,P0,P0,P0};
static const unsigned char* const order2[] = {P1,P2,P3,P4,P1,P2,P3,P4,P1,P2,P3,P4,P1,P2,P3,P4,P1,P2,P3,P4};
static const unsigned char* const order3[] = {P5,P5,P5,P5,P6,P7,P8,P9,P6,P7,P8,P9,P10,P11,P12,P13,P10,P11,P12,P13};
static const unsigned char* const order4[] = {P14,P14,P14,P14,P14,P14,P14,P14,P14,P14,P14,P14,P14,P14,P14,P14,P14,P14,P14,P14};

static const hUGEDutyInstr_t duty_instruments[] = {
    {8,0,192,0,128},
};
static const hUGEWaveInstr_t wave_instruments[] = {
    {0,32,14,0,128},
};
static const hUGENoiseInstr_t noise_instruments[] = {
    {113,0,0,0,0},
};

static const unsigned char waves[] = {
    0,0,0,0,0,0,0,0,255,255,255,255,255,255,255,255,
    0,0,0,0,0,0,0,0,15,255,255,255,255,255,255,255,
    0,0,0,0,0,0,0,0,0,255,255,255,255,255,255,255,
    0,0,0,0,0,0,0,0,0,15,255,255,255,255,255,255,
    0,0,0,0,0,0,0,0,0,0,255,255,255,255,255,255,
    0,0,0,0,0,0,0,0,0,0,15,255,255,255,255,255,
    0,0,0,0,0,0,0,0,0,0,0,255,255,255,255,255,
    0,0,0,0,0,0,0,0,0,0,0,15,255,255,255,255,
    0,0,0,0,0,0,0,0,0,0,0,0,255,255,255,255,
    0,0,0,0,0,0,0,0,0,0,0,0,15,255,255,255,
    0,0,0,0,0,0,0,0,0,0,0,0,0,255,255,255,
    0,0,0,0,0,0,0,0,0,0,0,0,0,15,255,255,
    0,0,0,0,0,0,0,0,0,0,0,0,0,0,255,255,
    0,17,34,51,68,85,102,119,136,153,170,187,204,221,238,255,
    1,35,69,103,137,171,205,239,254,220,186,152,118,84,50,16,
};

BANKREF(MUS_TITLE)
const hUGESong_t MUS_TITLE = {2, &order_cnt, order1, order2, order3,order4, duty_instruments, wave_instruments, noise_instruments, NULL, waves};
